<?xml version="1.0" encoding="UTF-8" standalone="no"?>
<svg
   xmlns:dc="http://purl.org/dc/elements/1.1/"
   xmlns:cc="http://creativecommons.org/ns#"
   xmlns:rdf="http://www.w3.org/1999/02/22-rdf-syntax-ns#"
   xmlns:svg="http://www.w3.org/2000/svg"
   xmlns="http://www.w3.org/2000/svg"
   xmlns:sodipodi="http://sodipodi.sourceforge.net/DTD/sodipodi-0.dtd"
   xmlns:inkscape="http://www.inkscape.org/namespaces/inkscape"
   inkscape:version="1.0 (4035a4fb49, 2020-05-01)"
   id="svg8"
   version="1.1"
   viewBox="0 0 291.04166 502.70835"
   height="1900"
   width="1100"
   sodipodi:docname="themesvg.svg">
  <defs
     id="defs2" />
  <sodipodi:namedview
     inkscape:pagecheckerboard="false"
     showborder="true"
     inkscape:showpageshadow="false"
     borderlayer="true"
     showgrid="true"
     inkscape:document-rotation="0"
     inkscape:current-layer="layer1"
     inkscape:document-units="px"
     inkscape:cy="1228.9457"
     inkscape:cx="782.41744"
     inkscape:zoom="0.49497475"
     inkscape:pageshadow="2"
     inkscape:pageopacity="0"
     borderopacity="1"
     bordercolor="#ff0066"
     pagecolor="#fffbff"
     id="base"
     units="px"
     inkscape:snap-page="true"
     inkscape:window-width="1920"
     inkscape:window-height="1027"
     inkscape:window-x="-8"
     inkscape:window-y="22"
     inkscape:window-maximized="1"
     showguides="true"
     inkscape:guide-bbox="true"
     inkscape:snap-grids="false" />
  <metadata
     id="metadata5">
    <rdf:RDF>
      <cc:Work
         rdf:about="">
        <dc:format>image/svg+xml</dc:format>
        <dc:type
           rdf:resource="http://purl.org/dc/dcmitype/StillImage" />
        <dc:title></dc:title>
        <dc:creator>
          <cc:Agent>
            <dc:title>Fabian Kuehne</dc:title>
          </cc:Agent>
        </dc:creator>
        <dc:rights>
          <cc:Agent>
            <dc:title />
          </cc:Agent>
        </dc:rights>
      </cc:Work>
    </rdf:RDF>
  </metadata>
  <g
     id="layer1"
     inkscape:groupmode="layer"
     inkscape:label="Ebene 1">
    <text
       xml:space="preserve"
       style="font-style:normal;font-weight:normal;font-size:10.5833px;line-height:1.25;font-family:sans-serif;fill:#000000;fill-opacity:1;stroke:none;stroke-width:0.264583"
       x="95.147957"
       y="252.83698"
       id="text1040"><tspan
         sodipodi:role="line"
         id="tspan1038"
         x="95.147957"
         y="252.83698"
         style="stroke-width:0.264583" /></text>
    <path
       style="fill:#3be69f;fill-opacity:1;stroke:none;stroke-width:0.264583px;stroke-linecap:butt;stroke-linejoin:miter;stroke-opacity:1"
       d="m 35.765996,33.923364 c -0.377976,-4.960938 6.425597,-11.481028 7.039806,-12.473215 0.614212,-0.992188 1.889882,-1.086682 3.68527,-1.606399 1.795386,-0.519718 5.291667,-0.188988 6.047618,-0.377976 0.755952,-0.188988 2.078868,1.464657 3.165549,0.94494 1.086684,-0.519717 2.787576,-2.362351 4.204986,-2.362351 1.41741,0 3.96875,0.04725 3.449034,1.086682 -0.519718,1.039434 -1.795388,0.283482 -3.023811,0.614211 -1.228421,0.330729 -7.087053,4.299479 -7.701265,6.567336 -0.614211,2.267856 0.897695,7.228793 2.362351,8.26823 1.464659,1.039434 7.417784,8.173733 8.409972,8.646205 0.992187,0.472469 3.732514,-0.283483 4.393972,-0.188989 0.661459,0.09449 1.559153,0.755951 1.086681,1.842635 -0.472469,1.086681 -1.842632,3.165549 -1.748139,4.582961 0.09449,1.41741 0.425222,6.142112 -0.661458,6.756324 -1.086681,0.614211 -6.236608,3.543527 -9.874629,2.409597 -3.63802,-1.133927 -11.57552,-4.913691 -13.701635,-5.149924 -2.126118,-0.236236 -5.480656,-1.181177 -6.37835,-3.543527 -0.897692,-2.362351 -1.228421,-3.496281 -0.519716,-5.433407 0.708705,-1.937128 0.09449,-6.189361 -0.236236,-10.583333 z"
       id="path1086" />
    <path
       style="fill:#3be69f;fill-opacity:1;stroke:none;stroke-width:0.264583px;stroke-linecap:butt;stroke-linejoin:miter;stroke-opacity:1"
       d="m 125.21577,80.247674 c -1.87088,-2.53906 -4.14268,-4.209494 -5.07812,-8.753075 -0.93544,-4.543584 -2.63929,-9.120574 -3.10701,-12.060539 -0.46772,-2.939965 0.7684,-6.046973 0.83522,-7.182869 0.0668,-1.135896 2.27179,-2.472243 3.04019,-2.639285 0.7684,-0.167044 1.20271,2.004521 1.60362,2.171565 0.4009,0.167043 1.57021,3.173826 2.07134,3.541321 0.50113,0.367496 1.83747,1.737252 1.87088,4.276313 0.0334,2.53906 0.56795,4.142676 1.33635,6.046972 0.7684,1.904296 1.30294,4.209494 0.73499,5.679477 -0.56795,1.469983 -1.50339,5.412208 -0.23386,6.38106 1.26953,0.968853 2.97338,1.737251 3.20724,3.140418 0.23386,1.403165 0.4009,3.207235 0.83521,3.674954 0.43432,0.467723 2.13816,4.042453 0.70159,3.441097 -1.43658,-0.601358 -3.04019,-3.474506 -3.4411,-4.543584 -0.4009,-1.069078 -3.4745,-2.071338 -4.37654,-3.173825 z"
       id="path1088" />
    <path
       style="fill:#3be69f;fill-opacity:1;stroke:none;stroke-width:0.264583px;stroke-linecap:butt;stroke-linejoin:miter;stroke-opacity:1"
       d="m 90.871639,90.06983 c 2.004521,-1.5368 4.409946,-4.209494 6.147197,-4.610399 1.737254,-0.400904 4.810854,2.739512 5.879934,2.80633 1.06907,0.06682 3.27405,-1.269532 3.74177,-0.53454 0.46772,0.734991 -0.86863,3.87541 -0.4009,4.810852 0.46772,0.935442 2.67269,4.677217 2.60587,5.813113 -0.0668,1.135896 -1.33634,10.490324 -1.00226,15.367994 0.33409,4.87767 0.73499,7.34991 1.5368,8.28536 0.80181,0.93544 6.61492,5.54584 7.21628,5.74629 0.60136,0.20045 4.27631,-0.20045 5.47903,0.60136 1.20271,0.80181 0.13363,8.75308 0.66817,10.82442 0.53454,2.07133 2.20497,6.81537 7.41673,6.5481 5.21175,-0.26727 8.0849,-0.0668 8.88671,0.60135 0.80181,0.66818 -1.87089,4.47677 -1.87089,6.48129 0,2.00452 -0.66817,4.74404 -1.40316,5.54584 -0.73499,0.80181 -2.6727,2.6727 -1.60362,3.94223 1.06908,1.26953 1.33635,1.26953 2.47224,1.67043 1.1359,0.40091 -0.13363,2.27179 -1.46998,1.00226 -1.33634,-1.26953 -2.87315,-4.14267 -4.47676,-4.74403 -1.60362,-0.60136 -3.40769,-1.60362 -4.00904,-2.73951 -0.60136,-1.1359 -1.67044,-4.54359 -2.6727,-6.41447 -1.00226,-1.87089 -4.00904,-4.81085 -4.6104,-6.21402 -0.60136,-1.40316 -1.06908,-13.16302 -2.00452,-14.49937 -0.93545,-1.33635 -8.88671,-7.21628 -10.02261,-7.95127 -1.13589,-0.73499 -3.00678,-3.27405 -4.40995,-3.27405 -1.40316,0 -4.20949,-0.66817 -4.677212,-1.46998 -0.467723,-0.80181 -2.004523,-1.26953 -4.276312,-4.07586 -2.271792,-2.80633 -3.006783,-9.42125 -2.672697,-11.42577 0.334087,-2.00452 -2.472243,-9.554889 -0.46772,-12.09395 z"
       id="path1090" />
    <path
       style="fill:#3be69f;fill-opacity:1;stroke:none;stroke-width:0.264583px;stroke-linecap:butt;stroke-linejoin:miter;stroke-opacity:1"
       d="m 123.87943,199.5167 c 0.93544,1.73725 -1.26954,6.01356 -0.46773,7.28309 0.80181,1.26954 1.60362,4.27632 3.54132,3.8086 1.93771,-0.46773 6.48129,-3.20724 9.02035,-2.20498 2.53906,1.00226 5.61266,7.34991 7.14946,11.35896 1.5368,4.00904 4.6104,16.50389 5.7463,18.50841 1.13589,2.00452 3.8754,4.54358 4.54358,4.87767 0.66817,0.33409 5.47902,0.4009 7.21627,0.20045 1.73726,-0.20045 10.08943,-0.93544 11.49259,-2.07134 1.40317,-1.13589 -1.73725,-5.61266 -2.3386,-7.34991 -0.60136,-1.73725 0.53453,-5.14494 0,-7.34991 -0.53454,-2.20497 -2.47225,-2.80633 -2.73952,-5.47903 -0.26727,-2.67269 0.86863,-3.40768 -0.33408,-3.4745 -1.20272,-0.0668 -3.40769,3.27405 -3.74178,4.87767 -0.33409,1.60362 -0.60135,4.27631 -1.80407,4.07586 -1.20271,-0.20045 -3.94222,-0.46772 -5.87993,-2.00452 -1.9377,-1.5368 -1.46998,-4.81085 -0.80181,-5.27858 0.66818,-0.46772 2.33861,-3.34086 0.66818,-3.74177 -1.67044,-0.4009 -3.34087,0.20045 -3.94223,-0.66817 -0.60135,-0.86863 -4.87767,-3.94223 -5.21175,-5.21176 -0.33409,-1.26953 -0.33409,-1.73725 0,-3.34087 0.33408,-1.60361 -2.13816,-2.93996 -3.27405,-3.14041 -1.1359,-0.20046 -1.9258,-0.92715 -5.16222,-0.006 -3.23642,0.92132 -5.97675,-0.4016 -6.11849,-1.44103 -0.14174,-1.03943 -1.39379,-3.6144 -3.82701,-3.18917 -2.43322,0.42522 -4.32764,-0.39294 -3.73478,0.96108 z"
       id="path1092" />
    <path
       style="fill:#3be69f;fill-opacity:1;stroke:none;stroke-width:0.264583px;stroke-linecap:butt;stroke-linejoin:miter;stroke-opacity:1"
       d="m 198.84853,212.07837 c 1.60361,-2.47225 5.4122,-3.27405 7.88445,-4.34313 2.47224,-1.06908 2.87314,-3.74178 5.67948,-4.94449 2.80633,-1.20271 9.42124,-1.5368 10.49032,-1.46998 1.06908,0.0668 0.86863,1.80407 0,1.73725 -0.86862,-0.0668 -7.01582,-0.13363 -7.61718,0.80181 -0.60136,0.93544 -2.53906,3.60814 -2.07134,4.6104 0.46772,1.00226 2.13816,3.4745 3.0736,3.20723 0.93545,-0.26727 2.73951,2.20498 3.34087,2.20498 0.60136,0 1.80407,4.34313 1.80407,7.14946 0,2.80633 1.33635,7.34991 2.27179,8.15172 0.93545,0.80181 2.60588,2.47224 0.60136,2.3386 -2.00452,-0.13363 -6.01357,-3.54132 -8.21854,-6.01356 -2.20497,-2.47224 -6.41447,-4.54358 -8.15172,-3.80859 -1.73725,0.73499 -3.20723,1.26953 -4.00904,0.20045 -0.80181,-1.06908 -4.81085,-2.93996 -5.34539,-4.54358 -0.53454,-1.60362 0.26727,-5.27857 0.26727,-5.27857 z"
       id="path1094" />
    <path
       style="fill:#000000;fill-opacity:0;stroke:none;stroke-width:0.264583px;stroke-linecap:butt;stroke-linejoin:miter;stroke-opacity:1"
       d="m 184.88369,271.34539 c -2.93996,-4.81086 -0.86862,-6.28084 -1.67043,-8.21854 -0.80181,-1.93771 -2.40543,-6.54811 -2.07134,-8.15172 0.33409,-1.60362 3.67496,1.80407 4.54358,3.00678 0.86863,1.20271 6.74856,7.88444 9.02035,7.68399 2.27179,-0.20045 5.87993,-2.47224 6.1472,-3.8754 0.26727,-1.40317 2.00452,-1.46998 2.93996,-1.67043 0.93545,-0.20046 2.07134,-1.06908 3.00678,-1.00227 0.93545,0.0668 1.33635,1.20272 3.34087,1.80407 2.00452,0.60136 4.87767,1.80407 3.34087,2.6727 -1.5368,0.86862 -9.28761,4.07587 -9.48807,5.27858 -0.20045,1.20269 -6.74855,3.00678 -8.61944,2.53905 -1.87089,-0.46773 -4.47676,0.46773 -4.81085,1.00227 -0.33409,0.53454 -3.14042,2.27179 -5.67948,-1.06908 z"
       id="path1096" />
    <path
       style="fill:#3be69f;fill-opacity:1;stroke:none;stroke-width:0.264583px;stroke-linecap:butt;stroke-linejoin:miter;stroke-opacity:1"
       d="m 28.064732,138.33928 c 1.984375,1.22843 3.496278,7.08706 4.535715,8.032 1.039434,0.94494 2.362351,1.32292 2.929313,1.6064 0.566965,0.28348 -1.984375,2.26785 -2.83482,3.40178 -0.850447,1.13393 -1.889881,9.92188 -1.700892,12.94569 0.188987,3.02381 0.09449,7.18155 1.228421,8.97693 1.13393,1.79539 1.417412,5.76414 1.748141,7.74851 0.33073,1.98438 0.377976,6.33111 1.181175,7.1343 0.8032,0.8032 2.693079,5.43341 4.157739,6.28386 1.464656,0.85045 5.716889,2.64583 7.370535,5.14992 1.653645,2.50409 4.299479,4.67746 4.819197,7.55953 0.519716,2.88206 -1.65349,9.84465 0.01693,13.78688 1.670437,3.94223 3.207235,5.41221 2.806333,8.01808 -0.400905,2.60588 -0.601359,4.47677 -0.400905,7.01583 0.200451,2.53906 0.46772,6.01356 1.269529,7.55036 0.801809,1.53681 2.271792,4.2095 0.868627,6.54811 -1.403165,2.33861 -4.543584,15.23435 -3.474506,19.17659 1.069078,3.94221 3.407688,9.28761 7.082645,11.4926 3.674954,2.20496 5.81311,4.40994 5.545841,6.54809 -0.267269,2.13815 -0.801809,9.22081 -0.534538,11.62622 0.267269,2.40543 3.27405,6.08039 12.628483,1.87089 9.354434,-4.20949 14.699824,-2.00453 17.506156,-6.88218 2.80633,-4.87767 1.737252,-6.61493 -0.935445,-10.08944 -2.672693,-3.4745 -0.534537,-7.08263 0.267269,-7.08263 0.801809,0 3.808593,2.13815 4.075861,3.00678 0.267269,0.86863 0.935443,12.69529 1.603619,14.09846 0.668175,1.40316 1.937705,4.47677 2.071345,6.14719 0.13363,1.67045 -1.73726,1.06908 -2.806336,2.33863 -1.069079,1.26952 -1.069079,0.66815 -0.935445,1.80406 0.133635,1.13588 1.804069,2.53905 0.06682,1.80406 -1.737251,-0.73499 -4.610398,-3.74176 -5.34539,-2.13815 -0.734991,1.60361 -0.868627,6.48129 -1.469982,10.35669 -0.601356,3.87541 -0.06682,3.54132 -1.536801,5.67949 -1.469983,2.13815 -5.412208,10.49031 -2.739512,13.76437 2.672697,3.27406 4.075862,5.27857 3.34087,6.54812 -0.734991,1.26952 -3.274052,4.74403 -1.403164,8.68624 1.870884,3.94224 1.737251,8.68627 8.552624,6.1472 6.815376,-2.53905 7.884446,-6.28084 9.421246,-5.47902 1.5368,0.80182 4.27632,5.01132 6.21402,4.2763 1.93771,-0.73498 3.40769,-2.93994 2.93997,-4.40994 -0.46773,-1.46997 1.26952,-12.82893 -0.93545,-14.96708 -2.20497,-2.13815 -4.27631,-2.80633 -3.60814,-4.61042 0.66818,-1.80406 1.67044,-3.20722 2.80633,-2.87313 1.1359,0.33408 4.94449,3.34086 6.21402,4.14268 1.26953,0.8018 3.80859,4.14266 3.54132,7.01583 -0.26727,2.87313 2.33861,26.1924 3.87541,28.93192 1.5368,2.73949 2.13816,13.69756 2.93996,17.23887 0.80181,3.54132 1.80407,6.01358 1.20272,8.55263 -0.60136,2.53908 -1.20272,7.01583 -0.66818,9.75535 0.53454,2.73949 1.87089,7.01582 1.5368,9.28761 -0.33408,2.2718 -0.4009,1.40317 -3.40768,0.93544 -3.00679,-0.46773 -7.61718,-1.33636 -10.02261,-3.07359 -2.40543,-1.73725 -12.62849,-6.28083 -16.63753,-9.68854 -4.009041,-3.40767 -11.292137,-8.35215 -16.904796,-10.28985 -5.612662,-1.93773 -20.112032,-7.28311 -24.922884,-2.60588 -4.81085,4.67719 -8.886711,9.42123 -14.633006,9.68851 -5.746295,0.26725 -9.621703,0.13364 -10.557145,-7.28311 -0.935445,-7.41672 -0.334089,-15.43481 -2.138156,-18.44159 -1.804069,-3.00678 -7.216278,-16.90478 -8.552626,-18.84249 -1.336348,-1.9377 -1.135896,-13.4303 -1.937704,-17.37254 -0.801809,-3.94221 -0.334087,-27.52875 0.133635,-28.99873 0.467721,-1.46997 1.469982,-20.51293 0.200452,-23.18562 -1.26953,-2.67271 -6.614921,-18.10753 -8.352173,-20.57976 -1.737252,-2.47225 -1.135895,-5.21176 -0.734991,-8.61945 0.400904,-3.40768 -0.668174,-4.54358 -0.668174,-6.949 0,-2.40543 0.534539,-7.14946 0.534539,-12.56167 0,-5.41221 -0.400904,-15.70209 -1.202713,-18.64205 -0.801808,-2.93996 -0.935443,-6.5481 0.400905,-9.55489 1.336347,-3.00678 -0.26727,-1.60361 1.937704,-3.74177 2.204973,-2.13816 3.407686,-2.40543 4.744034,-5.54584 1.336347,-3.14042 5.479025,-11.75986 5.211755,-14.36574 -0.267269,-2.60588 -2.472243,-12.6953 -2.472243,-16.9048 0,-4.20949 -0.200452,-6.41447 -1.135895,-8.01808 -0.935444,-1.60362 -0.734991,-10.42351 0.334087,-12.02713 1.069078,-1.60362 3.343732,-7.02803 5.747727,-6.85489 z"
       id="path1098" />
    <path
       style="fill:#3be69f;fill-opacity:1;stroke:none;stroke-width:0.264583px;stroke-linecap:butt;stroke-linejoin:miter;stroke-opacity:1"
       d="m 187.14546,273.13503 c -2.26177,-1.78964 -4.15774,-4.06323 -4.15774,-5.90587 0,-1.84263 0.47247,-2.88207 -0.0472,-4.6302 -0.51971,-1.74814 -1.41741,-5.43341 -1.37016,-7.18155 0.0472,-1.74814 0.33073,-2.92932 1.13393,-2.45685 0.8032,0.47247 4.48847,6.37835 6.04762,7.51228 1.55915,1.13393 3.73251,4.67747 5.95312,4.44122 2.22061,-0.23625 3.87426,-1.41741 4.39398,-2.36235 0.51971,-0.94494 -1.18118,-1.22842 1.37016,-1.98438 2.55134,-0.75595 3.77976,-0.42522 4.63021,-0.85044 0.85044,-0.42523 1.18117,-1.18118 1.93713,-1.13393 0.75595,0.0472 4.39397,2.26786 5.57514,2.83482 1.18118,0.56696 1.74814,2.22061 0.61422,2.17336 -1.13393,-0.0472 -3.92151,-0.0945 -4.8192,1.08667 -0.89769,1.18118 -0.94494,1.27569 -0.94494,1.27569 0,0 -2.17336,3.44903 -4.58296,3.59077 -2.4096,0.14173 -4.25223,-1.18118 -5.6224,0.0473 -1.37016,1.22841 -5.81138,1.55914 -6.2366,2.5041 -0.42523,0.94493 -2.26786,2.12611 -3.87426,1.03941 z"
       id="path1100" />
    <path
       style="fill:#3be69f;fill-opacity:1;stroke:none;stroke-width:0.264583px;stroke-linecap:butt;stroke-linejoin:miter;stroke-opacity:1"
       d="m 155.77344,321.32701 c -1.27567,-1.93712 -2.31511,-5.19719 -3.26005,-5.71691 -0.94494,-0.51969 -0.85044,-1.60639 -2.45684,-2.22059 -1.6064,-0.6142 -2.36235,-0.18899 -2.22061,-1.22844 0.14174,-1.03941 1.65364,-2.55132 2.97656,-3.44902 1.32291,-0.89768 2.59858,-1.74813 4.01599,-1.98438 1.41742,-0.23622 1.93713,-1.32292 2.97657,-0.0945 1.03943,1.22841 1.84263,1.98437 1.70089,2.97656 -0.14174,0.99219 -1.41741,1.88987 -1.93713,3.68525 -0.51971,1.79541 -0.61421,1.7009 -0.33073,4.11051 0.28348,2.40959 0.70871,7.13428 -1.46465,3.9215 z"
       id="path1102" />
    <path
       id="path842"
       d="m 203.24538,369.76164 c -1.48651,-3.82384 -1.97817,-8.36832 -0.51524,-11.62709 1.46292,-3.25877 2.21362,-4.60141 5.15132,-4.90744 2.93771,-0.30606 1.40114,-0.23411 6.87194,0.31751 5.47081,0.55162 5.6982,0.69207 5.6982,0.69207 0,0 1.59006,-0.66715 3.30726,1.25728 1.71719,1.92444 5.30531,2.72691 3.64174,5.54763 -1.66358,2.82068 -3.32386,3.60157 -3.7602,5.45249 -0.43636,1.8509 -1.85752,3.64333 -1.41774,5.09295 0.43977,1.44962 1.38794,7.92525 -0.52477,10.51356 -1.91271,2.5883 -6.03246,5.69831 -9.14739,7.30849 -3.1149,1.61022 -7.11595,4.40087 -7.66112,0.45162 -0.54515,-3.94927 -0.47664,-5.7132 -0.76596,-8.16939 -0.28931,-2.45616 -0.60365,-2.96443 -1.65539,-4.94908 -1.05173,-1.98464 2.18359,-2.26395 0.77732,-6.98063 z"
       style="fill:#3be69f;fill-opacity:1;stroke:none;stroke-width:0.264583px;stroke-linecap:butt;stroke-linejoin:miter;stroke-opacity:1" />
    <path
       id="path844"
       d="M 76.067707,-4.9136905 C 77.579613,0 81.264881,5.1026784 82.115326,6.4255951 c 0.850447,1.3229166 2.456846,6.7090769 3.401787,7.3705359 0.944938,0.661458 5.953125,3.96875 8.031993,5.008184 2.078869,1.039435 3.685268,1.511905 3.307292,4.44122 -0.377976,2.929316 -0.566965,5.10268 -1.039434,7.370537 -0.472472,2.267855 1.039434,3.496278 -0.850448,7.181546 -1.889881,3.685267 -2.55134,2.834822 -1.889881,7.087055 0.661458,4.252232 1.511905,4.630208 4.441221,5.291666 2.929314,0.661459 4.063244,1.039435 5.386164,0.188987 1.32291,-0.850445 1.6064,-3.023809 1.22842,-5.575149 -0.37798,-2.551337 -1.32292,-4.346726 2.74033,-3.307292 4.06324,1.039437 5.48065,2.078871 7.55952,1.795389 2.07887,-0.283483 4.44122,0.283482 5.95313,-1.511906 1.5119,-1.795386 6.52009,-8.693452 5.48065,-12.945684 -1.03944,-4.252232 -1.03944,-4.252232 -1.03944,-4.252232 0,0 -1.41741,-1.039435 -1.5119,-2.929315 -0.0945,-1.889881 -0.18899,-1.984375 -0.18899,-1.984375 0,0 -1.6064,-3.874256 -0.66146,-3.685268 0.94494,0.188988 3.87426,1.700893 4.53572,1.606399 0.66146,-0.09449 0.18899,-1.133929 3.40178,-0.850447 3.2128,0.283482 6.04762,-1.228422 7.37054,0.566965 1.32292,1.795386 2.17336,5.669642 2.17336,7.370535 0,1.700893 4.15774,11.433779 4.25223,14.363095 0.0945,2.929316 2.26786,9.638393 3.77977,10.299851 1.5119,0.661458 5.10268,1.039434 5.38616,2.929316 0.28348,1.889881 -0.18899,5.480656 0.47247,6.425594 0.66146,0.944941 1.98437,2.456846 0.94494,4.157739 -1.03944,1.700892 -2.26786,7.181548 -1.22843,9.071427 1.03944,1.889882 1.41742,3.590774 0.94495,5.575149 -0.47247,1.984375 -1.22843,1.795389 -0.37798,3.96875 0.85045,2.173364 3.87426,7.654018 6.52009,9.921875 2.64583,2.267858 1.98437,4.913691 1.13393,5.764138 -0.85045,0.850445 -1.51191,-1.511905 -3.2128,1.700893 -1.70089,3.212797 -3.30729,5.480657 -2.17336,6.992557 1.13392,1.51191 4.44122,1.6064 5.66964,2.83482 1.22842,1.22843 3.77976,1.79539 5.00818,3.49628 1.22843,1.7009 4.44123,6.61459 6.99256,7.74852 2.55134,1.13392 2.36235,1.79538 5.85863,1.32291 3.49629,-0.47247 3.87426,-1.88988 6.89807,-2.17336 3.02381,-0.28348 4.25223,1.03943 5.95313,-0.56697 1.70089,-1.6064 1.88988,-6.61458 3.1183,-5.85863 1.22842,0.75596 0.28348,5.48066 0.18899,8.12649 -0.0945,2.64583 1.32291,6.70908 1.32291,7.65402 0,0.94494 -0.75595,3.1183 -1.88988,4.44122 -1.13393,1.32292 -2.55134,3.02381 0.75595,9.5439 3.30729,6.52009 3.59078,8.78794 4.91369,12.37872 1.32292,3.59077 3.02381,6.70907 4.25224,6.70907 1.22842,0 3.59077,-0.37797 8.03199,1.32292 4.44122,1.70089 12.7567,7.74851 16.25298,11.24479 3.49628,3.49628 7.18154,3.30729 9.07143,5.57515 1.88988,2.26786 4.7247,6.52009 4.15773,10.48884 -0.56696,3.96875 -1.79538,5.48065 -0.85044,8.59896 0.94494,3.1183 6.70907,11.71726 10.01637,13.70164 3.30729,1.98437 4.53571,2.92931 7.74851,3.49628 3.21279,0.56696 2.64583,-2.07887 6.4256,-1.22843 3.77976,0.85045 7.37052,3.77977 10.58333,5.00819 3.21279,1.22842 2.92931,2.45684 9.92188,3.1183 6.99254,0.66146 7.18153,0.66146 7.18153,0.66146 l 5.10363,-234.43647 z"
       style="fill:#3be69f;fill-opacity:1;stroke:none;stroke-width:0.264583px;stroke-linecap:butt;stroke-linejoin:miter;stroke-opacity:1" />
    <path
       id="path846"
       d="m 171.98794,502.70834 c -1.87089,-14.69983 -8.41899,-25.12333 -9.48807,-28.86509 -1.06908,-3.74179 -3.0736,-4.54359 -0.66817,-9.75535 2.40542,-5.21176 7.48354,1.20272 9.08716,2.80633 1.60362,1.60361 4.00904,4.14269 7.21628,6.1472 3.20723,2.00451 2.13815,3.07361 3.74177,6.14719 1.60362,3.07362 5.47903,11.75986 9.75534,8.41899 4.27631,-3.34086 19.77794,-12.42803 22.71791,-15.23436 2.93996,-2.80633 7.61718,-4.54358 13.49711,-12.16075 5.87993,-7.6172 12.82894,-18.0407 16.70434,-17.37252 3.87541,0.66815 6.81538,1.87087 4.67722,7.08263 -2.13815,5.21177 -4.94448,6.28084 -2.27179,10.15625 2.6727,3.8754 6.41447,11.09167 8.8199,5.47901 2.40542,-5.61266 2.93996,-10.82442 4.81085,-10.55714 1.87088,0.26729 3.8754,5.34541 6.28083,3.60815 2.40543,-1.73725 7.75081,-4.54358 8.15173,-6.41448 0.4009,-1.87089 1.06907,-4.81083 1.06907,-6.28083 0,-1.46998 0.53454,-4.00905 1.73726,-6.01356 1.20271,-2.00454 6.41445,-5.61266 3.60812,-6.1472 -2.80633,-0.53453 -7.88445,5.34538 -9.22078,5.87992 -1.33636,0.53454 -2.93997,-2.67269 -4.00905,-4.6772 -1.06907,-2.00454 -0.26728,-2.27179 -3.47451,-3.74179 -3.20723,-1.46997 -4.40994,-1.06908 -4.54358,-3.20723 -0.13363,-2.13815 -1.46998,-4.00904 0.93545,-8.01809 2.40542,-4.00904 5.61264,-5.7463 7.61718,-6.28084 2.00451,-0.53453 6.54809,-0.80179 7.75081,-2.93994 1.20272,-2.13818 1.33636,-2.40543 1.33636,-2.40543 0,0 0.80179,-1.73726 4.40994,-3.07361 3.60812,-1.33634 8.80504,-1.33634 8.80504,-1.73726 0,-0.4009 7.8993,2.93997 7.8993,2.93997 l 26.87452,105.36632 z"
       style="fill:#3be69f;fill-opacity:1;stroke:none;stroke-width:0.264583px;stroke-linecap:butt;stroke-linejoin:miter;stroke-opacity:1" />
    <text
       id="text850"
       y="26.921148"
       x="235.20181"
       style="font-style:normal;font-variant:normal;font-weight:normal;font-stretch:normal;font-size:9.31984px;line-height:1.25;font-family:lato;-inkscape-font-specification:lato;fill:#333447;fill-opacity:1;stroke:none;stroke-width:0.232996"
       xml:space="preserve"><tspan
         style="font-style:normal;font-variant:normal;font-weight:normal;font-stretch:normal;font-family:lato;-inkscape-font-specification:lato;fill:#333447;fill-opacity:1;stroke-width:0.232996"
         y="26.921148"
         x="235.20181"
         id="tspan848"
         sodipodi:role="line">Inspiration</tspan><tspan
         id="tspan1092"
         style="font-style:normal;font-variant:normal;font-weight:normal;font-stretch:normal;font-family:lato;-inkscape-font-specification:lato;fill:#333447;fill-opacity:1;stroke-width:0.232996"
         y="38.57095"
         x="235.20181"
         sodipodi:role="line">Country</tspan></text>
    <circle
       r="2.0788691"
       cy="42.144348"
       cx="161.9628"
       id="path852"
       style="fill:#333447;fill-opacity:1;stroke:none;stroke-width:0.3;stroke-linecap:round;stroke-linejoin:bevel" />
    <text
       xml:space="preserve"
       style="font-style:normal;font-variant:normal;font-weight:normal;font-stretch:normal;font-size:5.46857px;line-height:1.25;font-family:lato;-inkscape-font-specification:lato;fill:#333447;fill-opacity:1;stroke:none;stroke-width:0.136715"
       x="164.38972"
       y="46.728626"
       id="text856"><tspan
         sodipodi:role="line"
         id="tspan854"
         x="164.38972"
         y="46.728626"
         style="font-style:normal;font-variant:normal;font-weight:bold;font-stretch:normal;font-family:lato;-inkscape-font-specification:'lato Bold';fill:#333447;fill-opacity:1;stroke-width:0.136715">Museums</tspan><tspan
         id="tspan948"
         sodipodi:role="line"
         x="164.38972"
         y="53.564339"
         style="font-style:normal;font-variant:normal;font-weight:normal;font-stretch:normal;font-family:lato;-inkscape-font-specification:lato;fill:#333447;fill-opacity:1;stroke-width:0.136715">evolution, technological</tspan><tspan
         id="tspan952"
         sodipodi:role="line"
         x="164.38972"
         y="60.400051"
         style="font-style:normal;font-variant:normal;font-weight:normal;font-stretch:normal;font-family:lato;-inkscape-font-specification:lato;fill:#333447;fill-opacity:1;stroke-width:0.136715">advance, succesfull research </tspan></text>
    <circle
       style="fill:#333447;fill-opacity:1;stroke:none;stroke-width:0.3;stroke-linecap:round;stroke-linejoin:bevel"
       id="circle858"
       cx="200.70535"
       cy="114.71577"
       r="2.0788691" />
    <text
       id="text862"
       y="114.34329"
       x="203.82338"
       style="font-style:normal;font-variant:normal;font-weight:normal;font-stretch:normal;font-size:5.46857px;line-height:1.25;font-family:lato;-inkscape-font-specification:lato;fill:#333447;fill-opacity:1;stroke:none;stroke-width:0.136715"
       xml:space="preserve"><tspan
         style="font-style:normal;font-variant:normal;font-weight:bold;font-stretch:normal;font-family:lato;-inkscape-font-specification:'lato Bold';fill:#333447;fill-opacity:1;stroke-width:0.136715"
         y="114.34329"
         x="203.82338"
         id="tspan860"
         sodipodi:role="line">Long walks in the nature</tspan><tspan
         id="tspan940"
         style="font-style:normal;font-variant:normal;font-weight:normal;font-stretch:normal;font-family:lato;-inkscape-font-specification:lato;fill:#333447;fill-opacity:1;stroke-width:0.136715"
         y="121.17901"
         x="203.82338"
         sodipodi:role="line">or biomimicry. We'll find</tspan><tspan
         id="tspan942"
         style="font-style:normal;font-variant:normal;font-weight:normal;font-stretch:normal;font-family:lato;-inkscape-font-specification:lato;fill:#333447;fill-opacity:1;stroke-width:0.136715"
         y="128.01472"
         x="203.82338"
         sodipodi:role="line">awesome solutions and</tspan><tspan
         id="tspan944"
         style="font-style:normal;font-variant:normal;font-weight:normal;font-stretch:normal;font-family:lato;-inkscape-font-specification:lato;fill:#333447;fill-opacity:1;stroke-width:0.136715"
         y="134.85043"
         x="203.82338"
         sodipodi:role="line">proven concepts!</tspan></text>
    <circle
       r="2.0788691"
       cy="201.31702"
       cx="270.064"
       id="circle864"
       style="fill:#333447;fill-opacity:1;stroke:none;stroke-width:0.3;stroke-linecap:round;stroke-linejoin:bevel" />
    <text
       xml:space="preserve"
       style="font-style:normal;font-variant:normal;font-weight:normal;font-stretch:normal;font-size:5.46857px;line-height:1.25;font-family:lato;-inkscape-font-specification:lato;fill:#333447;fill-opacity:1;stroke:none;stroke-width:0.136715"
       x="256.14346"
       y="207.69669"
       id="text868"><tspan
         sodipodi:role="line"
         id="tspan866"
         x="256.14346"
         y="207.69669"
         style="font-style:normal;font-variant:normal;font-weight:bold;font-stretch:normal;font-family:lato;-inkscape-font-specification:'lato Bold';fill:#333447;fill-opacity:1;stroke-width:0.136715">Fiction</tspan></text>
    <text
       id="text872"
       y="174.53239"
       x="246.50424"
       style="font-style:normal;font-variant:normal;font-weight:normal;font-stretch:normal;font-size:5.46857px;line-height:1.25;font-family:lato;-inkscape-font-specification:lato;fill:#333447;fill-opacity:1;stroke:none;stroke-width:0.136715"
       xml:space="preserve"><tspan
         style="font-style:normal;font-variant:normal;font-weight:bold;font-stretch:normal;font-family:lato;-inkscape-font-specification:'lato Bold';fill:#333447;fill-opacity:1;stroke-width:0.136715"
         y="174.53239"
         x="246.50424"
         id="tspan870"
         sodipodi:role="line">Science</tspan><tspan
         id="tspan954"
         style="font-style:normal;font-variant:normal;font-weight:normal;font-stretch:normal;font-family:lato;-inkscape-font-specification:lato;fill:#333447;fill-opacity:1;stroke-width:0.136715"
         y="181.3681"
         x="246.50424"
         sodipodi:role="line">the moonlanding</tspan><tspan
         id="tspan958"
         style="font-style:normal;font-variant:normal;font-weight:normal;font-stretch:normal;font-family:lato;-inkscape-font-specification:lato;fill:#333447;fill-opacity:1;stroke-width:0.136715"
         y="188.20383"
         x="246.50424"
         sodipodi:role="line">is still just</tspan><tspan
         id="tspan962"
         style="font-style:normal;font-variant:normal;font-weight:normal;font-stretch:normal;font-family:lato;-inkscape-font-specification:lato;fill:#333447;fill-opacity:1;stroke-width:0.136715"
         y="195.03954"
         x="246.50424"
         sodipodi:role="line">incredible to me</tspan></text>
    <circle
       style="fill:#333447;fill-opacity:1;stroke:none;stroke-width:0.3;stroke-linecap:round;stroke-linejoin:bevel"
       id="circle874"
       cx="243.00348"
       cy="174.7673"
       r="2.0788691" />
    <text
       xml:space="preserve"
       style="font-style:normal;font-variant:normal;font-weight:normal;font-stretch:normal;font-size:5.46857px;line-height:1.25;font-family:lato;-inkscape-font-specification:lato;fill:#333447;fill-opacity:1;stroke:none;stroke-width:0.136715"
       x="225.32579"
       y="368.55884"
       id="text895"><tspan
         id="tspan926"
         sodipodi:role="line"
         x="225.32579"
         y="368.55884"
         style="font-style:normal;font-variant:normal;font-weight:bold;font-stretch:normal;font-family:lato;-inkscape-font-specification:'lato Bold';fill:#333447;fill-opacity:1;stroke-width:0.136715">Open Source Island</tspan><tspan
         id="tspan930"
         sodipodi:role="line"
         x="225.32579"
         y="375.39456"
         style="font-style:normal;font-variant:normal;font-weight:normal;font-stretch:normal;font-family:lato;-inkscape-font-specification:lato;fill:#333447;fill-opacity:1;stroke-width:0.136715">Using open sourced</tspan><tspan
         id="tspan932"
         sodipodi:role="line"
         x="225.32579"
         y="382.23026"
         style="font-style:normal;font-variant:normal;font-weight:normal;font-stretch:normal;font-family:lato;-inkscape-font-specification:lato;fill:#333447;fill-opacity:1;stroke-width:0.136715">software and standards</tspan><tspan
         id="tspan934"
         sodipodi:role="line"
         x="225.32579"
         y="389.06598"
         style="font-style:normal;font-variant:normal;font-weight:normal;font-stretch:normal;font-family:lato;-inkscape-font-specification:lato;fill:#333447;fill-opacity:1;stroke-width:0.136715">opens completely new</tspan><tspan
         id="tspan936"
         sodipodi:role="line"
         x="225.32579"
         y="395.9017"
         style="font-style:normal;font-variant:normal;font-weight:normal;font-stretch:normal;font-family:lato;-inkscape-font-specification:lato;fill:#333447;fill-opacity:1;stroke-width:0.136715">ways of experiencing</tspan><tspan
         id="tspan938"
         sodipodi:role="line"
         x="225.32579"
         y="402.7374"
         style="font-style:normal;font-variant:normal;font-weight:normal;font-stretch:normal;font-family:lato;-inkscape-font-specification:lato;fill:#333447;fill-opacity:1;stroke-width:0.136715">design!</tspan></text>
    <text
       id="text980"
       y="162.36794"
       x="35.929157"
       style="font-style:normal;font-variant:normal;font-weight:normal;font-stretch:normal;font-size:5.46857px;line-height:1.25;font-family:lato;-inkscape-font-specification:lato;fill:#333447;fill-opacity:1;stroke:none;stroke-width:0.136715"
       xml:space="preserve"><tspan
         style="font-style:normal;font-variant:normal;font-weight:bold;font-stretch:normal;font-family:lato;-inkscape-font-specification:'lato Bold';fill:#333447;fill-opacity:1;stroke-width:0.136715"
         y="162.36794"
         x="35.929157"
         sodipodi:role="line"
         id="tspan968" /><tspan
         id="tspan1026"
         style="font-style:normal;font-variant:normal;font-weight:normal;font-stretch:normal;font-family:lato;-inkscape-font-specification:lato;fill:#333447;fill-opacity:1;stroke-width:0.136715"
         y="169.20364"
         x="35.929157"
         sodipodi:role="line">Those dogs are</tspan><tspan
         id="tspan1030"
         style="font-style:normal;font-variant:normal;font-weight:normal;font-stretch:normal;font-family:lato;-inkscape-font-specification:lato;fill:#333447;fill-opacity:1;stroke-width:0.136715"
         y="176.03937"
         x="35.929157"
         sodipodi:role="line">just so adorable!</tspan></text>
    <text
       y="155.04572"
       x="35.235287"
       xml:space="preserve"
       style="font-style:normal;font-variant:normal;font-weight:normal;font-stretch:normal;font-size:5.46857px;line-height:1.25;font-family:lato;-inkscape-font-specification:lato;fill:#333447;fill-opacity:1;stroke:none;stroke-width:0.136715"
       id="text994"><tspan
         y="155.04572"
         x="35.235287"
         id="tspan1039"
         sodipodi:role="line"><tspan
           id="tspan992"
           style="font-style:normal;font-variant:normal;font-weight:bold;font-stretch:normal;font-family:lato;-inkscape-font-specification:'lato Bold';fill:#333447;fill-opacity:1;stroke-width:0.136715">Golden Retriever</tspan></tspan><tspan
         y="161.88142"
         x="35.235287"
         id="tspan1041"
         sodipodi:role="line"><tspan
           id="tspan1043"
           style="font-style:normal;font-variant:normal;font-weight:bold;font-stretch:normal;font-family:lato;-inkscape-font-specification:'lato Bold';fill:#333447;fill-opacity:1;stroke-width:0.136715">Peninsula</tspan></tspan></text>
    <text
       xml:space="preserve"
       style="font-style:normal;font-variant:normal;font-weight:normal;font-stretch:normal;font-size:9.31984px;line-height:1.25;font-family:lato;-inkscape-font-specification:lato;fill:#333447;fill-opacity:1;stroke:none;stroke-width:0.232996"
       x="26.232441"
       y="309.11459"
       id="text1047"><tspan
         sodipodi:role="line"
         id="tspan1045"
         x="26.232441"
         y="309.11459"
         style="font-style:normal;font-variant:normal;font-weight:normal;font-stretch:normal;font-family:lato;-inkscape-font-specification:lato;fill:#333447;fill-opacity:1;stroke-width:0.232996">Southern</tspan><tspan
         id="tspan1049"
         sodipodi:role="line"
         x="26.232441"
         y="320.7644"
         style="font-style:normal;font-variant:normal;font-weight:normal;font-stretch:normal;font-family:lato;-inkscape-font-specification:lato;fill:#333447;fill-opacity:1;stroke-width:0.232996">Interests</tspan></text>
    <text
       xml:space="preserve"
       style="font-style:normal;font-variant:normal;font-weight:normal;font-stretch:normal;font-size:5.46857px;line-height:1.25;font-family:lato;-inkscape-font-specification:lato;fill:#333447;fill-opacity:1;stroke:none;stroke-width:0.136715"
       x="29.89702"
       y="333.12976"
       id="text1059"><tspan
         id="tspan1070"
         sodipodi:role="line"
         x="29.89702"
         y="333.12976"
         style="font-style:normal;font-variant:normal;font-weight:bold;font-stretch:normal;font-family:lato;-inkscape-font-specification:'lato Bold';fill:#333447;fill-opacity:1;stroke-width:0.136715">Sailing world</tspan><tspan
         id="tspan1074"
         sodipodi:role="line"
         x="29.89702"
         y="339.96548"
         style="font-style:normal;font-variant:normal;font-weight:normal;font-stretch:normal;font-family:lato;-inkscape-font-specification:lato;fill:#333447;fill-opacity:1;stroke-width:0.136715">Imoca 60, Americas Cup,</tspan><tspan
         id="tspan1076"
         sodipodi:role="line"
         x="29.89702"
         y="346.80118"
         style="font-style:normal;font-variant:normal;font-weight:normal;font-stretch:normal;font-family:lato;-inkscape-font-specification:lato;fill:#333447;fill-opacity:1;stroke-width:0.136715">you name it!</tspan></text>
    <circle
       r="2.0788691"
       cy="328.5538"
       cx="27.064432"
       id="circle1061"
       style="fill:#333447;fill-opacity:1;stroke:none;stroke-width:0.3;stroke-linecap:round;stroke-linejoin:bevel" />
    <text
       id="text1084"
       y="361.19305"
       x="84.954544"
       style="font-style:normal;font-variant:normal;font-weight:normal;font-stretch:normal;font-size:5.46857px;line-height:1.25;font-family:lato;-inkscape-font-specification:lato;fill:#333447;fill-opacity:1;stroke:none;stroke-width:0.136715"
       xml:space="preserve"><tspan
         style="font-style:normal;font-variant:normal;font-weight:bold;font-stretch:normal;font-family:lato;-inkscape-font-specification:'lato Bold';fill:#333447;fill-opacity:1;stroke-width:0.136715"
         y="361.19305"
         x="84.954544"
         sodipodi:role="line"
         id="tspan1078">Photography</tspan><tspan
         style="font-style:normal;font-variant:normal;font-weight:normal;font-stretch:normal;font-family:lato;-inkscape-font-specification:lato;fill:#333447;fill-opacity:1;stroke-width:0.136715"
         y="368.02878"
         x="84.954544"
         sodipodi:role="line"
         id="tspan1082">Film or digital,</tspan><tspan
         id="tspan1090"
         style="font-style:normal;font-variant:normal;font-weight:normal;font-stretch:normal;font-family:lato;-inkscape-font-specification:lato;fill:#333447;fill-opacity:1;stroke-width:0.136715"
         y="374.86447"
         x="84.954544"
         sodipodi:role="line">doesn't matter</tspan></text>
    <circle
       style="fill:#333447;fill-opacity:1;stroke:none;stroke-width:0.3;stroke-linecap:round;stroke-linejoin:bevel"
       id="circle1086"
       cx="106.44348"
       cy="354.74622"
       r="2.0788691" />
    <text
       id="text1106"
       y="209.38893"
       x="153.43759"
       style="font-style:normal;font-variant:normal;font-weight:normal;font-stretch:normal;font-size:5.46857px;line-height:1.25;font-family:lato;-inkscape-font-specification:lato;fill:#333447;fill-opacity:1;stroke:none;stroke-width:0.136715"
       xml:space="preserve"><tspan
         style="font-style:normal;font-variant:normal;font-weight:bold;font-stretch:normal;font-family:lato;-inkscape-font-specification:'lato Bold';fill:#333447;fill-opacity:1;stroke-width:0.136715"
         y="209.38893"
         x="153.43759"
         sodipodi:role="line"
         id="tspan1094">Technology Islands</tspan><tspan
         style="font-style:normal;font-variant:normal;font-weight:normal;font-stretch:normal;font-family:lato;-inkscape-font-specification:lato;fill:#333447;fill-opacity:1;stroke-width:0.136715"
         y="216.22464"
         x="153.43759"
         sodipodi:role="line"
         id="tspan1104" /></text>
    <text
       xml:space="preserve"
       style="font-style:normal;font-variant:normal;font-weight:normal;font-stretch:normal;font-size:5.46857px;line-height:1.25;font-family:lato;-inkscape-font-specification:lato;fill:#333447;fill-opacity:1;stroke:none;stroke-width:0.136715"
       x="122.03343"
       y="210.99255"
       id="text1120"><tspan
         id="tspan1108"
         sodipodi:role="line"
         x="122.03343"
         y="210.99255"
         style="font-style:normal;font-variant:normal;font-weight:bold;font-stretch:normal;font-family:lato;-inkscape-font-specification:'lato Bold';fill:#333447;fill-opacity:1;stroke-width:0.136715" /><tspan
         id="tspan1118"
         sodipodi:role="line"
         x="122.03343"
         y="217.82826"
         style="font-style:normal;font-variant:normal;font-weight:normal;font-stretch:normal;font-family:lato;-inkscape-font-specification:lato;fill:#333447;fill-opacity:1;stroke-width:0.136715">Virtual</tspan><tspan
         id="tspan1136"
         sodipodi:role="line"
         x="122.03343"
         y="224.66399"
         style="font-style:normal;font-variant:normal;font-weight:normal;font-stretch:normal;font-family:lato;-inkscape-font-specification:lato;fill:#333447;fill-opacity:1;stroke-width:0.136715">Reality</tspan></text>
    <text
       id="text1144"
       y="250.28117"
       x="188.85081"
       style="font-style:normal;font-variant:normal;font-weight:normal;font-stretch:normal;font-size:5.46857px;line-height:1.25;font-family:lato;-inkscape-font-specification:lato;fill:#333447;fill-opacity:1;stroke:none;stroke-width:0.136715"
       xml:space="preserve"><tspan
         style="font-style:normal;font-variant:normal;font-weight:normal;font-stretch:normal;font-family:lato;-inkscape-font-specification:lato;fill:#333447;fill-opacity:1;stroke-width:0.136715"
         y="250.28117"
         x="188.85081"
         sodipodi:role="line"
         id="tspan1142">Rapid</tspan><tspan
         id="tspan1150"
         style="font-style:normal;font-variant:normal;font-weight:normal;font-stretch:normal;font-family:lato;-inkscape-font-specification:lato;fill:#333447;fill-opacity:1;stroke-width:0.136715"
         y="257.11688"
         x="188.85081"
         sodipodi:role="line">Prototyping</tspan></text>
    <circle
       style="fill:#333447;fill-opacity:1;stroke:none;stroke-width:0.3;stroke-linecap:round;stroke-linejoin:bevel"
       id="circle1166"
       cx="55.856796"
       cy="54.706017"
       r="2.0788691" />
    <text
       id="text1174"
       y="61.428452"
       x="37.703968"
       style="font-style:normal;font-variant:normal;font-weight:normal;font-stretch:normal;font-size:5.46857px;line-height:1.25;font-family:lato;-inkscape-font-specification:lato;fill:#333447;fill-opacity:1;stroke:none;stroke-width:0.136715"
       xml:space="preserve"><tspan
         style="font-style:normal;font-variant:normal;font-weight:bold;font-stretch:normal;font-family:lato;-inkscape-font-specification:'lato Bold';fill:#333447;fill-opacity:1;stroke-width:0.136715"
         y="61.428452"
         x="37.703968"
         id="tspan1168"
         sodipodi:role="line">Music</tspan><tspan
         id="tspan1178"
         style="font-style:normal;font-variant:normal;font-weight:normal;font-stretch:normal;font-family:lato;-inkscape-font-specification:lato;fill:#333447;fill-opacity:1;stroke-width:0.136715"
         y="68.264168"
         x="37.703968"
         sodipodi:role="line">Rock, Rap,</tspan><tspan
         id="tspan1182"
         style="font-style:normal;font-variant:normal;font-weight:normal;font-stretch:normal;font-family:lato;-inkscape-font-specification:lato;fill:#333447;fill-opacity:1;stroke-width:0.136715"
         y="75.099876"
         x="37.703968"
         sodipodi:role="line">Indie</tspan></text>
    <text
       id="text1196"
       y="476.95346"
       x="3.9116523"
       style="font-style:normal;font-variant:normal;font-weight:normal;font-stretch:normal;font-size:5.46857px;line-height:1.25;font-family:lato;-inkscape-font-specification:lato;fill:#333447;fill-opacity:1;stroke:none;stroke-width:0.136715"
       xml:space="preserve"><tspan
         style="font-style:normal;font-variant:normal;font-weight:bold;font-stretch:normal;font-family:lato;-inkscape-font-specification:'lato Bold';fill:#333447;fill-opacity:1;stroke-width:0.136715"
         y="476.95346"
         x="3.9116523"
         sodipodi:role="line"
         id="tspan1184">Topology Fun Fact</tspan><tspan
         style="font-style:normal;font-variant:normal;font-weight:normal;font-stretch:normal;font-family:lato;-inkscape-font-specification:lato;fill:#333447;fill-opacity:1;stroke-width:0.136715"
         y="483.78918"
         x="3.9116523"
         sodipodi:role="line"
         id="tspan1194">The islands are roughly formed after</tspan><tspan
         id="tspan1212"
         style="font-style:normal;font-variant:normal;font-weight:normal;font-stretch:normal;font-family:lato;-inkscape-font-specification:lato;fill:#333447;fill-opacity:1;stroke-width:0.136715"
         y="490.62488"
         x="3.9116523"
         sodipodi:role="line">the Danish South Sea. One of my </tspan><tspan
         id="tspan1216"
         style="font-style:normal;font-variant:normal;font-weight:normal;font-stretch:normal;font-family:lato;-inkscape-font-specification:lato;fill:#333447;fill-opacity:1;stroke-width:0.136715"
         y="497.4606"
         x="3.9116523"
         sodipodi:role="line">favourite places on earth! </tspan></text>
  </g>
</svg>
