<?xml version="1.0" encoding="UTF-8" standalone="no"?>
<svg
   xmlns:dc="http://purl.org/dc/elements/1.1/"
   xmlns:cc="http://creativecommons.org/ns#"
   xmlns:rdf="http://www.w3.org/1999/02/22-rdf-syntax-ns#"
   xmlns:svg="http://www.w3.org/2000/svg"
   xmlns="http://www.w3.org/2000/svg"
   xmlns:sodipodi="http://sodipodi.sourceforge.net/DTD/sodipodi-0.dtd"
   xmlns:inkscape="http://www.inkscape.org/namespaces/inkscape"
   inkscape:version="1.0 (4035a4fb49, 2020-05-01)"
   sodipodi:docname="about.svg"
   id="svg8"
   version="1.1"
   viewBox="0 0 102.35407 38.759342"
   height="146.492"
   width="386.85001">
  <sodipodi:namedview
     inkscape:current-layer="svg8"
     inkscape:window-maximized="1"
     inkscape:window-y="22"
     inkscape:window-x="-8"
     inkscape:cy="219.14909"
     inkscape:cx="189.91289"
     inkscape:zoom="1.4286771"
     inkscape:snap-page="true"
     units="px"
     showgrid="false"
     id="namedview8"
     inkscape:window-height="1027"
     inkscape:window-width="1920"
     inkscape:pageshadow="2"
     inkscape:pageopacity="0"
     guidetolerance="10"
     gridtolerance="10"
     objecttolerance="10"
     borderopacity="1"
     bordercolor="#666666"
     pagecolor="#ffffff" />
  <defs
     id="defs2" />
  <metadata
     id="metadata5">
    <rdf:RDF>
      <cc:Work
         rdf:about="">
        <dc:format>image/svg+xml</dc:format>
        <dc:type
           rdf:resource="http://purl.org/dc/dcmitype/StillImage" />
        <dc:title></dc:title>
        <dc:creator>
          <cc:Agent>
            <dc:title>Fabian Kuehne</dc:title>
          </cc:Agent>
        </dc:creator>
        <dc:rights>
          <cc:Agent>
            <dc:title />
          </cc:Agent>
        </dc:rights>
      </cc:Work>
    </rdf:RDF>
  </metadata>
  <g
     transform="translate(-5.2167358,-12.024589)"
     id="layer1">
    <path
       id="rect830-1-5"
       style="opacity:1;fill:#3be69f;fill-opacity:1;stroke-width:2.40327;stroke-linecap:round;stroke-linejoin:round"
       d="M 19.716797,45.447266 V 191.93945 H 406.56641 V 45.447266 Z M 143.19336,83.207031 h 14.43555 v 26.544919 c 1.8628,-1.76966 3.89725,-3.18269 6.10156,-4.23828 2.23536,-1.08663 4.71906,-1.63086 7.45117,-1.63086 2.73211,0 5.21581,0.56006 7.45117,1.67774 2.23536,1.11768 4.14514,2.71675 5.72852,4.79687 1.58338,2.04908 2.7926,4.53279 3.63086,7.45117 0.8693,2.91839 1.30468,6.17789 1.30469,9.7793 0,3.91188 -0.49675,7.46626 -1.49024,10.66406 -0.99349,3.19781 -2.40653,5.94669 -4.23828,8.24414 -1.80071,2.26641 -3.95788,4.03569 -6.47266,5.3086 -2.51478,1.24186 -5.29336,1.86328 -8.33593,1.86328 -1.4592,0 -2.76339,-0.1405 -3.91211,-0.41992 -1.14873,-0.27942 -2.20357,-0.66732 -3.16602,-1.16407 -0.96245,-0.52779 -1.84708,-1.1492 -2.6543,-1.86328 -0.77616,-0.71407 -1.53808,-1.48986 -2.2832,-2.32812 l -0.51172,2.42187 c -0.24836,0.9935 -0.65209,1.67627 -1.21094,2.04883 -0.55883,0.37256 -1.30492,0.55859 -2.23632,0.5586 h -9.5918 z m 170.64258,7.404297 h 7.54297 v 14.111332 h 11.96875 v 9.87304 h -11.96875 v 23.98242 c 0,1.11768 0.26517,2.04981 0.79297,2.79493 0.55884,0.71407 1.35046,1.07031 2.375,1.07031 0.52779,0 0.96122,-0.0455 1.30273,-0.13867 0.37256,-0.1242 0.68327,-0.24888 0.93164,-0.37305 0.27942,-0.15524 0.52877,-0.27992 0.74609,-0.37305 0.24837,-0.12419 0.52742,-0.18554 0.83789,-0.18554 0.43466,0 0.77702,0.10885 1.02539,0.32617 0.27943,0.18628 0.55848,0.49699 0.8379,0.93164 l 4.37695,6.8457 c -1.8628,1.3971 -3.95861,2.45194 -6.28711,3.16602 -2.3285,0.68302 -4.73502,1.02539 -7.21875,1.02539 -2.29745,0 -4.32995,-0.32654 -6.09961,-0.97852 -1.73861,-0.68302 -3.21301,-1.63097 -4.42383,-2.84179 -1.17977,-1.24187 -2.08024,-2.73209 -2.70117,-4.47071 -0.62093,-1.73861 -0.93164,-3.67809 -0.93164,-5.82031 V 114.5957 h -4.09766 c -0.74512,0 -1.38236,-0.23351 -1.91015,-0.69922 -0.5278,-0.49674 -0.79102,-1.21117 -0.79102,-2.14257 v -5.63477 l 7.68359,-1.49023 2.83985,-11.783207 c 0.37256,-1.49024 1.42935,-2.234375 3.16797,-2.234375 z m -198.7793,13.085942 c 2.91839,0 5.54259,0.48095 7.87109,1.44335 2.35955,0.93141 4.34651,2.25142 5.96094,3.95899 1.64547,1.67652 2.90218,3.67931 3.77149,6.00781 0.8693,2.3285 1.30468,4.87357 1.30468,7.63672 v 30.17774 h -6.61328 c -1.36605,0 -2.40702,-0.18604 -3.12109,-0.5586 -0.68303,-0.37256 -1.25696,-1.14835 -1.72266,-2.32812 l -1.02343,-2.6543 c -1.21083,1.02454 -2.37647,1.925 -3.49415,2.70117 -1.11767,0.77617 -2.28136,1.44311 -3.49218,2.00195 -1.17978,0.5278 -2.45231,0.91569 -3.81836,1.16407 -1.33501,0.27942 -2.82523,0.41992 -4.47071,0.41992 -2.20431,0 -4.2071,-0.281 -6.00781,-0.83985 -1.800698,-0.58984 -3.338414,-1.44286 -4.611326,-2.56054 -1.241867,-1.11768 -2.20369,-2.49906 -2.886719,-4.14453 -0.683026,-1.67652 -1.023438,-3.60213 -1.023437,-5.77539 0,-1.73862 0.433427,-3.49206 1.302734,-5.26172 0.869306,-1.80071 2.375357,-3.43144 4.517578,-4.89063 2.142221,-1.49024 5.02965,-2.73111 8.66211,-3.72461 3.63246,-0.99349 8.21197,-1.55354 13.73828,-1.67773 v -2.04883 c 0,-2.82525 -0.58976,-4.85774 -1.76953,-6.09961 -1.14873,-1.27291 -2.79528,-1.91016 -4.9375,-1.91015 -1.70757,0 -3.10478,0.18603 -4.19141,0.55859 -1.08663,0.37256 -2.06428,0.79211 -2.93359,1.25781 -0.83826,0.4657 -1.65958,0.88525 -2.4668,1.25781 -0.80721,0.37256 -1.77099,0.5586 -2.88867,0.5586 -0.99349,0 -1.830645,-0.24935 -2.513671,-0.7461 -0.683026,-0.49674 -1.243081,-1.0865 -1.677735,-1.76953 l -2.607422,-4.51758 c 2.918388,-2.57687 6.148178,-4.48469 9.687498,-5.72656 3.57037,-1.27291 7.38797,-1.91015 11.45508,-1.91015 z m 103.87891,0.18554 c 3.66351,0 7.00214,0.57588 10.01367,1.72461 3.01153,1.14873 5.58825,2.79333 7.73047,4.93555 2.17326,2.14222 3.84952,4.75059 5.02929,7.82422 1.21082,3.04257 1.81641,6.47227 1.81641,10.29101 0,3.84979 -0.60559,7.32698 -1.81641,10.43164 -1.17977,3.07362 -2.85603,5.69783 -5.02929,7.8711 -2.14222,2.14222 -4.71894,3.80264 -7.73047,4.98242 -3.01153,1.14873 -6.35016,1.72461 -10.01367,1.72461 -3.69456,0 -7.0629,-0.57588 -10.10547,-1.72461 -3.01153,-1.17978 -5.61991,-2.8402 -7.82422,-4.98242 -2.17327,-2.17327 -3.86535,-4.79748 -5.07617,-7.8711 -1.17977,-3.10466 -1.76953,-6.58185 -1.76953,-10.43164 0,-3.81874 0.58976,-7.24844 1.76953,-10.29101 1.21082,-3.07363 2.9029,-5.682 5.07617,-7.82422 2.20431,-2.14222 4.81269,-3.78682 7.82422,-4.93555 3.04257,-1.14873 6.41091,-1.72461 10.10547,-1.72461 z m 31.30273,0.7461 h 14.4375 v 30.64257 c 0,2.3906 0.54228,4.23901 1.62891,5.54297 1.08663,1.30396 2.6857,1.95508 4.79687,1.95508 1.58339,0 3.05778,-0.32653 4.42383,-0.97851 1.3971,-0.68303 2.74878,-1.59737 4.05273,-2.7461 v -34.41601 h 14.43555 v 48.29297 h -8.9414 c -1.80071,0 -2.98023,-0.80745 -3.53907,-2.42188 l -0.83789,-2.79492 c -0.9314,0.90035 -1.89518,1.72363 -2.88867,2.46875 -0.99349,0.71407 -2.06416,1.33549 -3.21289,1.86328 -1.11768,0.49675 -2.34273,0.88464 -3.67773,1.16406 -1.30397,0.31047 -2.73283,0.4668 -4.28516,0.4668 -2.63897,0 -4.98217,-0.45121 -7.03125,-1.35156 -2.01803,-0.9314 -3.72595,-2.21976 -5.12305,-3.86524 -1.3971,-1.64547 -2.45389,-3.58495 -3.16797,-5.82031 -0.71407,-2.23536 -1.07031,-4.68936 -1.07031,-7.35938 z m -31.30273,9.96679 c -3.41514,0 -5.91467,1.16369 -7.49805,3.49219 -1.58338,2.3285 -2.375,5.88288 -2.375,10.66406 0,4.78119 0.79162,8.35139 2.375,10.71094 1.58338,2.3285 4.08291,3.49219 7.49805,3.49219 3.32199,0 5.76016,-1.16369 7.3125,-3.49219 1.58338,-2.35955 2.375,-5.92975 2.375,-10.71094 0,-4.78118 -0.79162,-8.33556 -2.375,-10.66406 -1.55234,-2.3285 -3.99051,-3.49219 -7.3125,-3.49219 z m -52.83008,0.13868 c -1.76966,0 -3.30737,0.38789 -4.61133,1.16406 -1.30396,0.77617 -2.59232,1.91015 -3.86523,3.40039 v 20.49023 c 1.08663,1.17977 2.26614,2.01888 3.53906,2.51563 1.27291,0.49674 2.56127,0.74414 3.86523,0.74414 1.36606,0 2.62471,-0.2474 3.77344,-0.74414 1.14873,-0.5278 2.12638,-1.3669 2.93359,-2.51563 0.83826,-1.17977 1.48938,-2.71552 1.95508,-4.60937 0.4657,-1.9249 0.69922,-4.28588 0.69922,-7.08008 0,-2.42164 -0.18603,-4.46996 -0.55859,-6.14649 -0.34152,-1.70753 -0.86991,-3.08894 -1.58399,-4.14453 -0.68303,-1.08663 -1.55183,-1.86242 -2.60742,-2.32812 -1.02454,-0.49675 -2.20405,-0.74609 -3.53906,-0.74609 z m -46.20508,18.53515 c -2.88734,0.1242 -5.2622,0.37159 -7.125,0.74414 -1.8628,0.37256 -3.3372,0.8396 -4.42383,1.39844 -1.08663,0.55884 -1.84855,1.19413 -2.2832,1.9082 -0.40361,0.71408 -0.60547,1.49182 -0.60547,2.33008 0,1.64547 0.45121,2.80916 1.35156,3.49219 0.90036,0.65198 2.22037,0.97851 3.95899,0.97851 1.8628,0 3.49157,-0.32653 4.88867,-0.97851 1.3971,-0.65198 2.81013,-1.70878 4.23828,-3.16797 z"
       transform="scale(0.26458333)" />
    <g
       aria-label="about"
       id="text834"
       style="font-style:normal;font-variant:normal;font-weight:900;font-stretch:normal;font-size:24.6433px;line-height:1.25;font-family:Lato;-inkscape-font-specification:'Lato Heavy';fill:#000000;fill-opacity:1;stroke:none;stroke-width:0.616083" />
  </g>
</svg>
