<?xml version="1.0" encoding="UTF-8" standalone="no"?>
<svg
   xmlns:dc="http://purl.org/dc/elements/1.1/"
   xmlns:cc="http://creativecommons.org/ns#"
   xmlns:rdf="http://www.w3.org/1999/02/22-rdf-syntax-ns#"
   xmlns:svg="http://www.w3.org/2000/svg"
   xmlns="http://www.w3.org/2000/svg"
   xmlns:sodipodi="http://sodipodi.sourceforge.net/DTD/sodipodi-0.dtd"
   xmlns:inkscape="http://www.inkscape.org/namespaces/inkscape"
   inkscape:version="1.0 (4035a4fb49, 2020-05-01)"
   sodipodi:docname="contact.svg"
   id="svg8"
   version="1.1"
   viewBox="0 0 102.35406 38.759344"
   height="146.492"
   width="386.85001">
  <sodipodi:namedview
     inkscape:current-layer="svg8"
     inkscape:window-maximized="1"
     inkscape:window-y="22"
     inkscape:window-x="-8"
     inkscape:cy="561.25984"
     inkscape:cx="242.4297"
     inkscape:zoom="0.50511364"
     inkscape:snap-page="true"
     units="px"
     showgrid="false"
     id="namedview8"
     inkscape:window-height="1027"
     inkscape:window-width="1920"
     inkscape:pageshadow="2"
     inkscape:pageopacity="0"
     guidetolerance="10"
     gridtolerance="10"
     objecttolerance="10"
     borderopacity="1"
     bordercolor="#666666"
     pagecolor="#ffffff" />
  <defs
     id="defs2" />
  <metadata
     id="metadata5">
    <rdf:RDF>
      <cc:Work
         rdf:about="">
        <dc:format>image/svg+xml</dc:format>
        <dc:type
           rdf:resource="http://purl.org/dc/dcmitype/StillImage" />
        <dc:title></dc:title>
        <dc:creator>
          <cc:Agent>
            <dc:title>Fabian Kuehne</dc:title>
          </cc:Agent>
        </dc:creator>
        <dc:rights>
          <cc:Agent>
            <dc:title />
          </cc:Agent>
        </dc:rights>
      </cc:Work>
    </rdf:RDF>
  </metadata>
  <g
     transform="translate(-47.852787,-97.036971)"
     id="layer1">
    <path
       id="rect830-1"
       style="opacity:1;fill:#3be69f;fill-opacity:1;stroke-width:2.40327;stroke-linecap:round;stroke-linejoin:round"
       d="M 180.86133,366.75391 V 513.24609 H 567.71094 V 366.75391 Z m 200.03515,41.76562 h 7.54493 v 14.10938 h 11.96875 v 9.87304 h -11.96875 v 23.98438 c 0,1.11768 0.26321,2.04785 0.79101,2.79297 0.55884,0.71408 1.35047,1.07226 2.375,1.07226 0.5278,0 0.96317,-0.0474 1.30469,-0.14062 0.37256,-0.12422 0.68327,-0.24883 0.93164,-0.37305 0.27943,-0.15521 0.52682,-0.27786 0.74414,-0.37109 0.24844,-0.12422 0.52944,-0.1875 0.83984,-0.1875 0.43465,0 0.77508,0.10897 1.02344,0.32617 0.27943,0.1862 0.55848,0.49689 0.83789,0.93164 l 4.37891,6.8457 c -1.8628,1.39709 -3.95862,2.45194 -6.28711,3.16602 -2.32852,0.68303 -4.73502,1.02539 -7.21875,1.02539 -2.29745,0 -4.33189,-0.32652 -6.10156,-0.97852 -1.73861,-0.68301 -3.21301,-1.62901 -4.42383,-2.83984 -1.17978,-1.24185 -2.08024,-2.73207 -2.70117,-4.4707 -0.62094,-1.73861 -0.93164,-3.68006 -0.93164,-5.82227 v -24.96094 h -4.09766 c -0.74512,0 -1.38041,-0.23353 -1.9082,-0.69922 -0.5278,-0.49675 -0.79297,-1.20922 -0.79297,-2.14062 v -5.63477 l 7.68554,-1.49023 2.83985,-11.7832 c 0.37256,-1.49025 1.42741,-2.23438 3.16601,-2.23438 z m 129.3418,0 h 7.54492 v 14.10938 h 11.96875 v 9.87304 H 517.7832 v 23.98438 c 0,1.11768 0.26322,2.04785 0.79102,2.79297 0.55884,0.71408 1.35044,1.07226 2.375,1.07226 0.52777,0 0.96317,-0.0474 1.30469,-0.14062 0.37256,-0.12422 0.68325,-0.24883 0.93164,-0.37305 0.2794,-0.15521 0.52681,-0.27786 0.74414,-0.37109 0.24844,-0.12422 0.52749,-0.1875 0.83789,-0.1875 0.43464,0 0.777,0.10897 1.02539,0.32617 0.27941,0.1862 0.55846,0.49689 0.83789,0.93164 l 4.37695,6.8457 c -1.8628,1.39709 -3.95862,2.45194 -6.28711,3.16602 -2.32849,0.68303 -4.73304,1.02539 -7.21679,1.02539 -2.29745,0 -4.33192,-0.32652 -6.10157,-0.97852 -1.7386,-0.68301 -3.21299,-1.62901 -4.42382,-2.83984 -1.17977,-1.24185 -2.08025,-2.73207 -2.70118,-4.4707 -0.62095,-1.73861 -0.93164,-3.68006 -0.93164,-5.82227 v -24.96094 h -4.09765 c -0.74512,0 -1.38236,-0.23353 -1.91016,-0.69922 -0.5278,-0.49675 -0.79101,-1.20922 -0.79101,-2.14062 v -5.63477 l 7.68359,-1.49023 2.8418,-11.7832 c 0.37256,-1.49025 1.42738,-2.23438 3.16601,-2.23438 z m -83.44531,13.08594 c 2.9184,0 5.5426,0.48091 7.87109,1.44336 2.35956,0.9314 4.34653,2.25142 5.96094,3.95898 1.64548,1.67653 2.90217,3.67737 3.77148,6.00586 0.8693,2.32852 1.30469,4.87554 1.30469,7.63867 v 30.17774 h -6.61328 c -1.36605,0 -2.40701,-0.18603 -3.12109,-0.5586 -0.68304,-0.37256 -1.25697,-1.15031 -1.72266,-2.33007 l -1.02344,-2.6543 c -1.21081,1.02455 -2.37646,1.92501 -3.49414,2.70117 -1.11768,0.77617 -2.28137,1.44311 -3.49218,2.00195 -1.17977,0.5278 -2.45232,0.91765 -3.81836,1.16602 -1.33501,0.27943 -2.82523,0.41797 -4.47071,0.41797 -2.20432,0 -4.20712,-0.27905 -6.00781,-0.83789 -1.80072,-0.58989 -3.33841,-1.44287 -4.61133,-2.56055 -1.24185,-1.11768 -2.20368,-2.501 -2.88672,-4.14648 -0.68301,-1.67653 -1.02343,-3.60019 -1.02343,-5.77344 0,-1.73863 0.43344,-3.49402 1.30273,-5.26367 0.86932,-1.80072 2.37537,-3.4295 4.51758,-4.88867 2.14223,-1.49025 5.02965,-2.73306 8.66211,-3.72657 3.63245,-0.99348 8.21195,-1.55158 13.73828,-1.67578 v -2.04883 c 0,-2.82524 -0.58974,-4.85971 -1.76953,-6.10156 -1.14873,-1.27292 -2.79529,-1.9082 -4.9375,-1.9082 -1.70757,0 -3.10282,0.18603 -4.18946,0.55859 -1.08663,0.37256 -2.06625,0.79213 -2.93554,1.25781 -0.83828,0.46572 -1.65959,0.8833 -2.4668,1.25586 -0.80721,0.37256 -1.77099,0.56055 -2.88867,0.56055 -0.99351,0 -1.83066,-0.24934 -2.51367,-0.74609 -0.68304,-0.49676 -1.24309,-1.08652 -1.67774,-1.76953 l -2.60742,-4.51758 c 2.91838,-2.57688 6.14817,-4.48664 9.6875,-5.72852 3.57037,-1.27289 7.38798,-1.9082 11.45508,-1.9082 z m -185.10742,0.18555 c 3.78769,0 7.1105,0.60557 9.96679,1.8164 2.8563,1.21081 5.43302,2.98008 7.73047,5.3086 l -3.81836,5.07617 c -0.43465,0.52777 -0.8542,0.94733 -1.25781,1.25781 -0.40361,0.31048 -0.97753,0.46484 -1.72266,0.46484 -0.71407,0 -1.36714,-0.1702 -1.95703,-0.51172 -0.55884,-0.34145 -1.19413,-0.71358 -1.9082,-1.11718 -0.71407,-0.43465 -1.55318,-0.82261 -2.51563,-1.16406 -0.96238,-0.34152 -2.15779,-0.51368 -3.58593,-0.51368 -1.76966,0 -3.30542,0.32655 -4.60938,0.97852 -1.27291,0.65199 -2.32971,1.58411 -3.16797,2.79492 -0.83826,1.21084 -1.45772,2.70105 -1.86132,4.4707 -0.40361,1.73861 -0.60547,3.70974 -0.60547,5.91407 0,4.62596 0.88463,8.18033 2.65429,10.66406 1.80071,2.48373 4.26859,3.72656 7.4043,3.72656 1.67652,0 2.9966,-0.20186 3.95898,-0.60547 0.9935,-0.43464 1.83065,-0.90168 2.51368,-1.39844 0.68302,-0.52773 1.30444,-1.00871 1.86328,-1.44335 0.58988,-0.43465 1.32014,-0.65235 2.18945,-0.65235 1.14873,0 2.01754,0.41957 2.60742,1.25781 l 4.19141,5.16993 c -1.49024,1.70756 -3.05765,3.10476 -4.70313,4.1914 -1.64547,1.0556 -3.33755,1.89275 -5.07617,2.51367 -1.70757,0.58989 -3.43131,0.99362 -5.16992,1.21094 -1.73861,0.24844 -3.4307,0.37305 -5.07617,0.37305 -2.94944,0 -5.7755,-0.5581 -8.47656,-1.67578 -2.67002,-1.11768 -5.02905,-2.73258 -7.07813,-4.84375 -2.01803,-2.14224 -3.63293,-4.76644 -4.84375,-7.8711 -1.17977,-3.10468 -1.76953,-6.64321 -1.76953,-10.61718 0,-3.47722 0.51257,-6.7209 1.53711,-9.73243 1.05559,-3.04259 2.59329,-5.66679 4.61133,-7.87109 2.04908,-2.23536 4.56249,-3.9888 7.54297,-5.26172 3.01152,-1.27292 6.48871,-1.91015 10.43164,-1.91015 z m 45.03906,0 c 3.66351,0 7.00214,0.57393 10.01367,1.72265 3.01153,1.14875 5.58825,2.79529 7.73047,4.9375 2.17327,2.14221 3.84952,4.75058 5.0293,7.82422 1.21082,3.04257 1.8164,6.47228 1.8164,10.29102 0,3.8498 -0.60558,7.32698 -1.8164,10.43164 -1.17978,3.07361 -2.85603,5.69781 -5.0293,7.87109 -2.14222,2.14221 -4.71894,3.80263 -7.73047,4.98242 -3.01153,1.14873 -6.35016,1.72266 -10.01367,1.72266 -3.69455,0 -7.06289,-0.57393 -10.10547,-1.72266 -3.01153,-1.17979 -5.618,-2.84021 -7.82226,-4.98242 -2.17327,-2.17328 -3.86536,-4.79748 -5.07618,-7.87109 -1.17977,-3.10466 -1.77148,-6.58184 -1.77148,-10.43164 0,-3.81874 0.59171,-7.24845 1.77148,-10.29102 1.21082,-3.07364 2.90291,-5.68201 5.07618,-7.82422 2.20426,-2.14221 4.81073,-3.78875 7.82226,-4.9375 3.04258,-1.14872 6.41092,-1.72265 10.10547,-1.72265 z m 59.15234,0 c 2.63897,0 4.96634,0.46508 6.98438,1.39648 2.04908,0.90036 3.77282,2.17483 5.16992,3.82031 1.3971,1.61442 2.45194,3.55395 3.16602,5.82031 0.71407,2.23537 1.07226,4.67358 1.07226,7.3125 v 30.68946 h -14.4375 v -30.68946 c 0,-2.35949 -0.54227,-4.19213 -1.62891,-5.49609 -1.08659,-1.335 -2.6857,-2.00195 -4.79687,-2.00195 -1.58338,0 -3.0736,0.34042 -4.4707,1.02344 -1.36606,0.65199 -2.7019,1.55244 -4.00586,2.70117 v 34.46289 h -14.43555 v -48.29297 h 8.94141 c 1.8007,0 2.98022,0.80548 3.53906,2.41992 l 0.83789,2.79492 c 0.9314,-0.86929 1.89322,-1.67675 2.88672,-2.42187 0.99349,-0.74512 2.05029,-1.36653 3.16797,-1.86328 1.14872,-0.52778 2.37377,-0.93151 3.67773,-1.21094 1.33501,-0.31048 2.7797,-0.46484 4.33203,-0.46484 z m 130.66016,0 c 3.78769,0 7.11051,0.60557 9.9668,1.8164 2.85631,1.21081 5.43302,2.98008 7.73047,5.3086 l -3.81836,5.07617 c -0.43465,0.52777 -0.85421,0.94733 -1.25782,1.25781 -0.4036,0.31048 -0.97753,0.46484 -1.72265,0.46484 -0.71408,0 -1.36715,-0.1702 -1.95703,-0.51172 -0.55885,-0.3415 -1.19413,-0.71358 -1.90821,-1.11718 -0.71408,-0.43465 -1.55318,-0.82256 -2.51562,-1.16406 -0.96245,-0.34152 -2.15778,-0.51368 -3.58594,-0.51368 -1.76965,0 -3.30542,0.32655 -4.60937,0.97852 -1.27292,0.65199 -2.32972,1.58411 -3.16797,2.79492 -0.83828,1.21084 -1.45968,2.70105 -1.86329,4.4707 -0.40359,1.73861 -0.60546,3.70974 -0.60546,5.91407 0,4.62596 0.88657,8.18033 2.65625,10.66406 1.80069,2.48373 4.26857,3.72656 7.40429,3.72656 1.67653,0 2.99459,-0.20186 3.95703,-0.60547 0.99349,-0.43464 1.83259,-0.90168 2.51563,-1.39844 0.68301,-0.52778 1.30444,-1.00871 1.86328,-1.44335 0.58988,-0.43465 1.31818,-0.65235 2.1875,-0.65235 1.14873,0 2.01949,0.41957 2.60938,1.25781 l 4.1914,5.16993 c -1.49024,1.70756 -3.05962,3.10476 -4.70508,4.1914 -1.64548,1.0556 -3.33756,1.89275 -5.07617,2.51367 -1.70759,0.58989 -3.42936,0.99362 -5.16797,1.21094 -1.7386,0.24844 -3.43069,0.37305 -5.07617,0.37305 -2.94942,0 -5.77548,-0.5581 -8.47656,-1.67578 -2.67001,-1.11768 -5.02904,-2.73258 -7.07813,-4.84375 -2.01804,-2.14224 -3.63294,-4.76644 -4.84375,-7.8711 -1.17976,-3.10468 -1.76953,-6.64321 -1.76953,-10.61718 0,-3.47722 0.51258,-6.7209 1.53711,-9.73243 1.0556,-3.04259 2.59136,-5.66679 4.60938,-7.87109 2.04908,-2.23536 4.56443,-3.9888 7.54492,-5.26172 3.01153,-1.27292 6.48871,-1.91015 10.43164,-1.91015 z m -189.8125,10.71093 c -3.41513,0 -5.91271,1.16367 -7.49609,3.49219 -1.58338,2.32849 -2.37696,5.88484 -2.37696,10.66602 0,4.7812 0.79358,8.3514 2.37696,10.71093 1.58338,2.32852 4.08096,3.49219 7.49609,3.49219 3.32199,0 5.76017,-1.16367 7.3125,-3.49219 1.58338,-2.35953 2.375,-5.92973 2.375,-10.71093 0,-4.78118 -0.79162,-8.33753 -2.375,-10.66602 -1.55233,-2.32852 -3.99051,-3.49219 -7.3125,-3.49219 z m 144.91211,18.67578 c -2.88736,0.12422 -5.2622,0.37161 -7.125,0.74415 -1.8628,0.37254 -3.33722,0.83764 -4.42383,1.39648 -1.08664,0.55884 -1.84856,1.19608 -2.2832,1.91016 -0.40363,0.71407 -0.60547,1.48987 -0.60547,2.32812 0,1.64548 0.4512,2.80918 1.35156,3.49219 0.90036,0.65199 2.22038,0.97851 3.95899,0.97851 1.8628,0 3.49155,-0.32652 4.88867,-0.97851 1.39709,-0.65197 2.81012,-1.70682 4.23828,-3.16602 z"
       transform="scale(0.26458333)" />
    <g
       aria-label="contact"
       id="text834-6"
       style="font-style:normal;font-variant:normal;font-weight:900;font-stretch:normal;font-size:24.6433px;line-height:1.25;font-family:Lato;-inkscape-font-specification:'Lato Heavy';fill:#000000;fill-opacity:1;stroke:none;stroke-width:0.616082" />
  </g>
</svg>
