<?xml version="1.0" encoding="UTF-8" standalone="no"?>
<svg
   xmlns:dc="http://purl.org/dc/elements/1.1/"
   xmlns:cc="http://creativecommons.org/ns#"
   xmlns:rdf="http://www.w3.org/1999/02/22-rdf-syntax-ns#"
   xmlns:svg="http://www.w3.org/2000/svg"
   xmlns="http://www.w3.org/2000/svg"
   xmlns:sodipodi="http://sodipodi.sourceforge.net/DTD/sodipodi-0.dtd"
   xmlns:inkscape="http://www.inkscape.org/namespaces/inkscape"
   width="773.70001"
   height="146.492"
   viewBox="0 0 204.70812 38.759344"
   version="1.1"
   id="svg8"
   sodipodi:docname="halloFabian.svg"
   inkscape:version="1.0 (4035a4fb49, 2020-05-01)">
  <sodipodi:namedview
     inkscape:document-rotation="0"
     pagecolor="#ffffff"
     bordercolor="#666666"
     borderopacity="1"
     objecttolerance="10"
     gridtolerance="10"
     guidetolerance="10"
     inkscape:pageopacity="0"
     inkscape:pageshadow="2"
     inkscape:window-width="1920"
     inkscape:window-height="1027"
     id="namedview8"
     showgrid="false"
     units="px"
     inkscape:snap-page="true"
     inkscape:zoom="1.4286771"
     inkscape:cx="371.06699"
     inkscape:cy="91.661703"
     inkscape:window-x="-8"
     inkscape:window-y="22"
     inkscape:window-maximized="1"
     inkscape:current-layer="svg8" />
  <defs
     id="defs2" />
  <metadata
     id="metadata5">
    <rdf:RDF>
      <cc:Work
         rdf:about="">
        <dc:format>image/svg+xml</dc:format>
        <dc:type
           rdf:resource="http://purl.org/dc/dcmitype/StillImage" />
        <dc:title></dc:title>
        <dc:creator>
          <cc:Agent>
            <dc:title>Fabian Kuehne</dc:title>
          </cc:Agent>
        </dc:creator>
        <dc:rights>
          <cc:Agent>
            <dc:title />
          </cc:Agent>
        </dc:rights>
      </cc:Work>
    </rdf:RDF>
  </metadata>
  <path
     transform="scale(0.26458333)"
     d="M 0 0 L 0 146.49219 L 773.69922 146.49219 L 773.69922 0 L 0 0 z M 575.14453 19.673828 C 576.97848 19.673828 578.69415 20.003772 580.29297 20.662109 C 581.9388 21.320447 583.37308 22.236506 584.5957 23.412109 C 585.81833 24.587713 586.78292 25.95211 587.48828 27.503906 C 588.19364 29.055702 588.54687 30.724802 588.54688 32.511719 C 588.54687 34.251611 588.19364 35.897422 587.48828 37.449219 C 586.78292 38.953991 585.81833 40.293146 584.5957 41.46875 C 583.37308 42.597327 581.9388 43.51534 580.29297 44.220703 C 578.69415 44.879041 576.97848 45.207031 575.14453 45.207031 C 573.35762 45.207031 571.68852 44.879041 570.13672 44.220703 C 568.58492 43.51534 567.19724 42.597327 565.97461 41.46875 C 564.799 40.293146 563.8577 38.953991 563.15234 37.449219 C 562.494 35.897422 562.16602 34.251611 562.16602 32.511719 C 562.16602 30.724802 562.494 29.055702 563.15234 27.503906 C 563.8577 25.95211 564.799 24.587713 565.97461 23.412109 C 567.19724 22.236506 568.58492 21.320447 570.13672 20.662109 C 571.68852 20.003772 573.35762 19.673828 575.14453 19.673828 z M 32.703125 20.097656 L 54.570312 20.097656 L 54.570312 58.962891 C 57.203663 56.705734 60.046946 54.894951 63.103516 53.53125 C 66.207107 52.120526 69.898538 51.416016 74.177734 51.416016 C 78.174786 51.416016 81.703199 52.120526 84.759766 53.53125 C 87.863357 54.894951 90.471804 56.822175 92.587891 59.314453 C 94.703975 61.759707 96.303208 64.700062 97.384766 68.132812 C 98.46632 71.518551 99.007813 75.209982 99.007812 79.207031 L 99.007812 125.68945 L 77.140625 125.68945 L 77.140625 79.207031 C 77.140625 75.633198 76.317718 72.857825 74.671875 70.882812 C 73.026029 68.860785 70.603889 67.849609 67.40625 67.849609 C 65.008019 67.849609 62.750853 68.367814 60.634766 69.402344 C 58.565706 70.389851 56.545327 71.752295 54.570312 73.492188 L 54.570312 125.68945 L 32.703125 125.68945 L 32.703125 20.097656 z M 186.17383 20.097656 L 208.04102 20.097656 L 208.04102 125.68945 L 186.17383 125.68945 L 186.17383 20.097656 z M 222.82031 20.097656 L 244.68555 20.097656 L 244.68555 125.68945 L 222.82031 125.68945 L 222.82031 20.097656 z M 482.92188 20.097656 L 504.78906 20.097656 L 504.78906 60.302734 C 507.61053 57.622359 510.69059 55.483586 514.0293 53.884766 C 517.41502 52.23892 521.17632 51.416016 525.31445 51.416016 C 529.45258 51.416016 533.21388 52.262208 536.59961 53.955078 C 539.98536 55.647946 542.87913 58.068133 545.27734 61.21875 C 547.67558 64.322342 549.5077 68.085591 550.77734 72.505859 C 552.09403 76.926128 552.75391 81.863561 552.75391 87.318359 C 552.75391 93.243399 552.00087 98.627227 550.49609 103.4707 C 548.99134 108.31419 546.85255 112.47529 544.07812 115.95508 C 541.35075 119.38784 538.08239 122.06811 534.27344 123.99609 C 530.46448 125.87706 526.25484 126.81836 521.64648 126.81836 C 519.43634 126.81836 517.46255 126.60681 515.72266 126.18359 C 513.98276 125.76038 512.38352 125.17231 510.92578 124.41992 C 509.46804 123.62051 508.12695 122.67921 506.9043 121.59766 C 505.72871 120.5161 504.57781 119.34192 503.44922 118.07227 L 502.67188 121.74023 C 502.29569 123.24501 501.68433 124.27946 500.83789 124.84375 C 499.99145 125.40804 498.86385 125.68945 497.45312 125.68945 L 482.92188 125.68945 L 482.92188 20.097656 z M 341.63477 22.917969 L 407.79688 22.917969 L 407.79688 41.257812 L 365.61719 41.257812 L 365.61719 67.285156 L 400.74414 67.285156 L 400.74414 85.695312 L 365.61719 85.695312 L 365.61719 125.68945 L 341.63477 125.68945 L 341.63477 22.917969 z M 143.56055 51.132812 C 147.98082 51.132812 151.95366 51.862575 155.48047 53.320312 C 159.0543 54.731036 162.06451 56.728125 164.50977 59.314453 C 167.00204 61.853756 168.90598 64.887263 170.22266 68.414062 C 171.53933 71.940873 172.19727 75.797275 172.19727 79.982422 L 172.19727 125.68945 L 162.18164 125.68945 C 160.11258 125.68945 158.53663 125.40804 157.45508 124.84375 C 156.42055 124.27946 155.55106 123.10332 154.8457 121.31641 L 153.29297 117.29492 C 151.45903 118.84672 149.69677 120.21112 148.00391 121.38672 C 146.31104 122.56232 144.54683 123.57349 142.71289 124.41992 C 140.92598 125.21933 138.99875 125.8074 136.92969 126.18359 C 134.90765 126.60681 132.65048 126.81836 130.1582 126.81836 C 126.81949 126.81836 123.78599 126.39526 121.05859 125.54883 C 118.3312 124.65537 116.00416 123.36279 114.07617 121.66992 C 112.19521 119.97705 110.73766 117.8829 109.70312 115.39062 C 108.66869 112.85141 108.15039 109.93622 108.15039 106.64453 C 108.15039 104.01118 108.80832 101.3542 110.125 98.673828 C 111.44167 95.946428 113.72213 93.477712 116.9668 91.267578 C 120.21146 89.010422 124.58607 87.129774 130.08789 85.625 C 135.58971 84.120229 142.52424 83.274026 150.89453 83.085938 L 150.89453 79.982422 C 150.89453 75.703226 150.00176 72.623144 148.21484 70.742188 C 146.47495 68.8142 143.98295 67.849609 140.73828 67.849609 C 138.15195 67.849609 136.03647 68.132977 134.39062 68.697266 C 132.74487 69.261554 131.26199 69.896208 129.94531 70.601562 C 128.67566 71.306923 127.42966 71.941568 126.20703 72.505859 C 124.9844 73.070148 123.52685 73.351562 121.83398 73.351562 C 120.32921 73.351562 119.05992 72.975042 118.02539 72.222656 C 116.99086 71.470271 116.14467 70.577501 115.48633 69.542969 L 111.53711 62.701172 C 115.95738 58.79817 120.84628 55.906356 126.20703 54.025391 C 131.61481 52.097403 137.40039 51.132812 143.56055 51.132812 z M 440.30859 51.132812 C 444.72885 51.132812 448.70169 51.86257 452.22852 53.320312 C 455.80234 54.731036 458.81256 56.728125 461.25781 59.314453 C 463.75011 61.853756 465.65404 64.887258 466.9707 68.414062 C 468.28739 71.940873 468.94531 75.797275 468.94531 79.982422 L 468.94531 125.68945 L 458.92969 125.68945 C 456.86065 125.68945 455.2847 125.40804 454.20312 124.84375 C 453.16863 124.27946 452.29911 123.10332 451.59375 121.31641 L 450.04102 117.29492 C 448.20709 118.84672 446.44483 120.21112 444.75195 121.38672 C 443.05908 122.56232 441.29487 123.57349 439.46094 124.41992 C 437.67403 125.21933 435.7468 125.8074 433.67773 126.18359 C 431.65569 126.60681 429.39852 126.81836 426.90625 126.81836 C 423.56754 126.81836 420.53405 126.39526 417.80664 125.54883 C 415.07923 124.65537 412.75221 123.36279 410.82422 121.66992 C 408.94325 119.97705 407.4857 117.8829 406.45117 115.39062 C 405.41666 112.85136 404.89844 109.93622 404.89844 106.64453 C 404.89844 104.01118 405.55639 101.3542 406.87305 98.673828 C 408.18973 95.946428 410.47019 93.477712 413.71484 91.267578 C 416.95952 89.010422 421.3341 87.129774 426.83594 85.625 C 432.33775 84.120229 439.27229 83.274031 447.64258 83.085938 L 447.64258 79.982422 C 447.64258 75.703226 446.7498 72.623149 444.96289 70.742188 C 443.223 68.8142 440.731 67.849609 437.48633 67.849609 C 434.9 67.849609 432.7845 68.132977 431.13867 68.697266 C 429.49284 69.261554 428.01005 69.896203 426.69336 70.601562 C 425.42372 71.306923 424.1777 71.941568 422.95508 72.505859 C 421.73245 73.070148 420.27491 73.351562 418.58203 73.351562 C 417.07725 73.351562 415.80797 72.975042 414.77344 72.222656 C 413.73891 71.470271 412.89265 70.577501 412.23438 69.542969 L 408.28516 62.701172 C 412.70544 58.79817 417.59432 55.906356 422.95508 54.025391 C 428.36285 52.097403 434.14844 51.132812 440.30859 51.132812 z M 632.07812 51.132812 C 636.49841 51.132812 640.47124 51.862567 643.99805 53.320312 C 647.57187 54.731036 650.58206 56.728125 653.02734 59.314453 C 655.51961 61.853756 657.42357 64.887255 658.74023 68.414062 C 660.05692 71.940873 660.71484 75.797275 660.71484 79.982422 L 660.71484 125.68945 L 650.69922 125.68945 C 648.63015 125.68945 647.05421 125.40804 645.97266 124.84375 C 644.93812 124.27946 644.06864 123.10332 643.36328 121.31641 L 641.8125 117.29492 C 639.97855 118.84672 638.21436 120.21112 636.52148 121.38672 C 634.82863 122.56232 633.06637 123.57349 631.23242 124.41992 C 629.44551 125.21933 627.51633 125.8074 625.44727 126.18359 C 623.42522 126.60681 621.16805 126.81836 618.67578 126.81836 C 615.33707 126.81836 612.30358 126.39526 609.57617 125.54883 C 606.84876 124.65537 604.52174 123.36279 602.59375 121.66992 C 600.71281 119.97705 599.25524 117.8829 598.2207 115.39062 C 597.18617 112.85133 596.66797 109.93622 596.66797 106.64453 C 596.66797 104.01118 597.32787 101.3542 598.64453 98.673828 C 599.96122 95.946428 602.24168 93.477712 605.48633 91.267578 C 608.731 89.010422 613.10364 87.129774 618.60547 85.625 C 624.10728 84.120229 631.04377 83.274034 639.41406 83.085938 L 639.41406 79.982422 C 639.41406 75.703226 638.51933 72.623152 636.73242 70.742188 C 634.99253 68.8142 632.50051 67.849609 629.25586 67.849609 C 626.66953 67.849609 624.55406 68.132977 622.9082 68.697266 C 621.26237 69.261554 619.78153 69.8962 618.46484 70.601562 C 617.1952 71.306923 615.94919 71.941568 614.72656 72.505859 C 613.50394 73.070148 612.04639 73.351562 610.35352 73.351562 C 608.84873 73.351562 607.57748 72.975042 606.54297 72.222656 C 605.50844 71.470271 604.66225 70.577501 604.00391 69.542969 L 600.05469 62.701172 C 604.47495 58.79817 609.36581 55.906356 614.72656 54.025391 C 620.13434 52.097403 625.91798 51.132812 632.07812 51.132812 z M 293.18164 51.416016 C 298.73049 51.416016 303.78632 52.285498 308.34766 54.025391 C 312.909 55.765284 316.81198 58.257287 320.05664 61.501953 C 323.34833 64.746617 325.88691 68.696181 327.67383 73.351562 C 329.50777 77.959928 330.42578 83.155486 330.42578 88.939453 C 330.42578 94.770445 329.50777 100.03782 327.67383 104.74023 C 325.88691 109.39562 323.34833 113.36847 320.05664 116.66016 C 316.81198 119.90482 312.909 122.42207 308.34766 124.20898 C 303.78632 125.94888 298.73049 126.81836 293.18164 126.81836 C 287.58577 126.81836 282.48532 125.94888 277.87695 124.20898 C 273.31561 122.42207 269.3641 119.90482 266.02539 116.66016 C 262.7337 113.36847 260.17183 109.39562 258.33789 104.74023 C 256.55098 100.03782 255.65625 94.770445 255.65625 88.939453 C 255.65625 83.155486 256.55098 77.959928 258.33789 73.351562 C 260.17183 68.696181 262.7337 64.746617 266.02539 61.501953 C 269.3641 58.257287 273.31561 55.765284 277.87695 54.025391 C 282.48532 52.285498 287.58577 51.416016 293.18164 51.416016 z M 716.16797 51.416016 C 720.16502 51.416016 723.69147 52.120526 726.74805 53.53125 C 729.85164 54.894951 732.46204 56.822175 734.57812 59.314453 C 736.69421 61.759707 738.29345 64.700052 739.375 68.132812 C 740.45655 71.518551 740.99609 75.209982 740.99609 79.207031 L 740.99609 125.68945 L 719.13086 125.68945 L 719.13086 79.207031 C 719.13086 75.633198 718.30797 72.857825 716.66211 70.882812 C 715.01628 68.860775 712.59414 67.849609 709.39648 67.849609 C 706.99827 67.849609 704.74108 68.367814 702.625 69.402344 C 700.55594 70.389851 698.53362 71.752295 696.55859 73.492188 L 696.55859 125.68945 L 674.69336 125.68945 L 674.69336 52.542969 L 688.23633 52.542969 C 690.96374 52.542969 692.74927 53.765684 693.5957 56.210938 L 694.86523 60.443359 C 696.27596 59.126683 697.73545 57.903968 699.24023 56.775391 C 700.74499 55.646811 702.34228 54.707464 704.03516 53.955078 C 705.77505 53.155668 707.63242 52.544313 709.60742 52.121094 C 711.62947 51.650852 713.81678 51.416016 716.16797 51.416016 z M 564.42188 52.542969 L 586.28906 52.542969 L 586.28906 125.68945 L 564.42188 125.68945 L 564.42188 52.542969 z M 293.18164 67.638672 C 288.00899 67.638672 284.2244 69.400926 281.82617 72.927734 C 279.42794 76.454545 278.22852 81.840315 278.22852 89.082031 C 278.22852 96.323745 279.42794 101.73085 281.82617 105.30469 C 284.2244 108.8315 288.00899 110.5957 293.18164 110.5957 C 298.21322 110.5957 301.90465 108.8315 304.25586 105.30469 C 306.65409 101.73085 307.85352 96.323745 307.85352 89.082031 C 307.85352 81.840315 306.65409 76.454545 304.25586 72.927734 C 301.90465 69.400926 298.21322 67.638672 293.18164 67.638672 z M 517.62695 67.849609 C 514.94656 67.849609 512.61758 68.437679 510.64258 69.613281 C 508.66755 70.788886 506.71705 72.504562 504.78906 74.761719 L 504.78906 105.79883 C 506.43492 107.58574 508.2224 108.85504 510.15039 109.60742 C 512.07838 110.35981 514.0289 110.73633 516.00391 110.73633 C 518.07297 110.73633 519.9769 110.35981 521.7168 109.60742 C 523.45669 108.80801 524.93948 107.53872 526.16211 105.79883 C 527.43175 104.01191 528.41766 101.68293 529.12305 98.814453 C 529.82841 95.898958 530.18164 92.325921 530.18164 88.09375 C 530.18164 84.425867 529.90025 81.322506 529.33594 78.783203 C 528.81867 76.196877 528.01905 74.10468 526.9375 72.505859 C 525.90297 70.860014 524.58514 69.683876 522.98633 68.978516 C 521.43453 68.22613 519.64898 67.849609 517.62695 67.849609 z M 150.89453 95.923828 C 146.52129 96.111923 142.92496 96.488441 140.10352 97.052734 C 137.28207 97.617023 135.04819 98.321533 133.40234 99.167969 C 131.7565 100.0144 130.60365 100.97899 129.94531 102.06055 C 129.334 103.1421 129.0293 104.31629 129.0293 105.58594 C 129.0293 108.07822 129.71052 109.84242 131.07422 110.87695 C 132.43792 111.86446 134.43696 112.35742 137.07031 112.35742 C 139.89176 112.35742 142.36048 111.86446 144.47656 110.87695 C 146.59265 109.88945 148.73142 108.29021 150.89453 106.08008 L 150.89453 95.923828 z M 447.64258 95.923828 C 443.26934 96.111923 439.67301 96.488441 436.85156 97.052734 C 434.03012 97.617023 431.79625 98.321533 430.15039 99.167969 C 428.50456 100.0144 427.3517 100.97899 426.69336 102.06055 C 426.08203 103.1421 425.77734 104.31629 425.77734 105.58594 C 425.77734 108.07822 426.45856 109.84242 427.82227 110.87695 C 429.18597 111.86446 431.18501 112.35742 433.81836 112.35742 C 436.6398 112.35742 439.1085 111.86446 441.22461 110.87695 C 443.34069 109.88945 445.47948 108.29021 447.64258 106.08008 L 447.64258 95.923828 z M 639.41406 95.923828 C 635.04082 96.111923 631.44254 96.488441 628.62109 97.052734 C 625.79965 97.617023 623.56578 98.321533 621.91992 99.167969 C 620.27409 100.0144 619.12319 100.97899 618.46484 102.06055 C 617.85354 103.1421 617.54688 104.31629 617.54688 105.58594 C 617.54688 108.07822 618.23005 109.84242 619.59375 110.87695 C 620.95743 111.86446 622.95454 112.35742 625.58789 112.35742 C 628.40936 112.35742 630.87806 111.86446 632.99414 110.87695 C 635.11022 109.88945 637.25096 108.29021 639.41406 106.08008 L 639.41406 95.923828 z "
     style="opacity:1;fill:#3be69f;fill-opacity:1;stroke-width:2.89134;stroke-linecap:round;stroke-linejoin:round"
     id="rect836" />
  <g
     style="font-style:normal;font-variant:normal;font-weight:900;font-stretch:normal;font-size:37.3254px;line-height:1.25;font-family:Lato;-inkscape-font-specification:'Lato Heavy';fill:#000000;fill-opacity:1;stroke:none;stroke-width:0.933136"
     id="text834"
     aria-label="halloFabian" />
</svg>
